<svg width="632" height="503" viewBox="0 0 632 503" fill="none" xmlns="http://www.w3.org/2000/svg">
<rect width="632" height="503" rx="8" fill="#84C0DC" fill-opacity="0.4"/>
<rect x="1" y="1" width="630" height="501" rx="7" stroke="black" stroke-opacity="0.04" stroke-width="2"/>
<g clip-path="url(#clip0_1_839)">
<path d="M316 456C310.48 456 306 460.48 306 466C306 471.52 310.48 476 316 476C321.52 476 326 471.52 326 466C326 460.48 321.52 456 316 456ZM316 474C311.58 474 308 470.42 308 466C308 461.58 311.58 458 316 458C320.42 458 324 461.58 324 466C324 470.42 320.42 474 316 474Z" fill="#858BDC"/>
</g>
<g clip-path="url(#clip1_1_839)">
<path d="M350 456C344.48 456 340 460.48 340 466C340 471.52 344.48 476 350 476C355.52 476 360 471.52 360 466C360 460.48 355.52 456 350 456ZM350 474C345.58 474 342 470.42 342 466C342 461.58 345.58 458 350 458C354.42 458 358 461.58 358 466C358 470.42 354.42 474 350 474Z" fill="#858BDC"/>
</g>
<g clip-path="url(#clip2_1_839)">
<path d="M282 461C279.24 461 277 463.24 277 466C277 468.76 279.24 471 282 471C284.76 471 287 468.76 287 466C287 463.24 284.76 461 282 461ZM282 456C276.48 456 272 460.48 272 466C272 471.52 276.48 476 282 476C287.52 476 292 471.52 292 466C292 460.48 287.52 456 282 456ZM282 474C277.58 474 274 470.42 274 466C274 461.58 277.58 458 282 458C286.42 458 290 461.58 290 466C290 470.42 286.42 474 282 474Z" fill="#858BDC"/>
</g>
<path d="M226.871 295.439C208.638 298.61 195.051 309.312 190.537 314.267L183.931 337.058C191.528 337.829 211.347 352.583 255.609 330.122C299.87 307.661 313.413 231.358 306.146 231.358C298.88 231.358 289.961 267.362 275.097 279.584C260.233 291.806 249.663 291.475 226.871 295.439Z" fill="#EAFEDA" stroke="black" stroke-width="1.98188"/>
<g filter="url(#filter0_ii_1_839)">
<path d="M207.356 305.131C205.842 304.872 203.156 304.899 203.292 300.785C203.428 296.672 211.078 282.613 213.115 282.514C215.662 282.39 228.407 291.543 229.157 296.143C229.751 299.785 221.008 301.784 217.272 303.158C213.535 304.533 209.626 305.518 207.356 305.131Z" fill="#858BDC"/>
</g>
<g filter="url(#filter1_ii_1_839)">
<path d="M232.43 298.506C231.104 298.19 228.712 298.048 229.169 294.51C229.625 290.973 236.539 279.234 238.36 279.274C240.636 279.323 252.272 288.088 252.564 292.1C252.795 295.276 244.852 296.461 241.415 297.416C237.978 298.371 234.42 298.98 232.43 298.506Z" fill="#84C0DC"/>
</g>
<path d="M241.415 297.416C237.978 298.371 234.42 298.98 232.43 298.506C231.104 298.19 228.712 298.048 229.169 294.51C229.625 290.973 236.539 279.234 238.36 279.274M241.415 297.416C244.852 296.461 252.795 295.276 252.564 292.1C252.272 288.088 240.636 279.323 238.36 279.274M241.415 297.416C237.964 288.552 237.771 283.076 238.36 279.274" stroke="black" stroke-width="1.98188"/>
<g filter="url(#filter2_ii_1_839)">
<path d="M255.659 292.875C254.469 292.886 252.397 293.258 252.178 290.256C251.959 287.253 256.122 275.778 257.688 275.438C259.645 275.013 270.847 280.249 271.789 283.488C272.731 286.728 256.848 292.863 255.659 292.875Z" fill="#858BDC"/>
</g>
<path d="M255.659 292.875C254.469 292.886 252.397 293.258 252.178 290.256C251.959 287.253 256.122 275.778 257.688 275.438C259.645 275.013 270.847 280.249 271.789 283.488C272.731 286.728 256.848 292.863 255.659 292.875Z" stroke="black" stroke-width="1.98188"/>
<g filter="url(#filter3_ii_1_839)">
<path d="M274.639 283.173C273.693 283.666 272.179 284.805 270.864 282.506C269.55 280.207 268.521 269.386 269.643 268.479C271.045 267.345 281.982 266.951 283.963 269.145C285.945 271.338 275.585 282.68 274.639 283.173Z" fill="#84C0DC"/>
</g>
<path d="M274.639 283.173C273.693 283.666 272.179 284.805 270.864 282.506C269.55 280.207 268.521 269.386 269.643 268.479C271.045 267.345 281.982 266.951 283.963 269.145C285.945 271.338 275.585 282.68 274.639 283.173Z" stroke="black" stroke-width="1.98188"/>
<g filter="url(#filter4_ii_1_839)">
<path d="M286.894 268.435C286.203 268.987 285.162 270.153 283.634 268.496C282.106 266.839 279.199 258.215 279.958 257.299C280.906 256.154 289.911 254.088 291.973 255.553C294.034 257.017 287.586 267.883 286.894 268.435Z" fill="#858BDC"/>
</g>
<path d="M286.894 268.435C286.203 268.987 285.162 270.153 283.634 268.496C282.106 266.839 279.199 258.215 279.958 257.299C280.906 256.154 289.911 254.088 291.973 255.553C294.034 257.017 287.586 267.883 286.894 268.435Z" stroke="black" stroke-width="1.98188"/>
<path d="M241.514 281.941C228.143 265.567 207.597 255.041 195.901 251.532C195.511 259.524 196.369 280.069 202.918 298.314C211.105 321.121 229.234 325.799 243.853 316.443C258.473 307.086 254.885 298.314 241.514 281.941Z" fill="#EAFEDA" stroke="black" stroke-width="1.98188" stroke-linecap="round"/>
<path d="M82.0856 281.905C95.4565 265.55 116.003 255.037 127.699 251.532C128.088 259.515 127.231 280.036 120.681 298.259C112.494 321.039 94.366 325.712 79.7464 316.366C65.1269 307.021 68.7147 298.259 82.0856 281.905Z" fill="#EAFEDA" stroke="black" stroke-width="1.98188" stroke-linecap="round"/>
<path d="M98.3381 320.518C108.858 277.915 121.13 250.17 125.952 241.623H204.19C209.45 256.087 222.073 292.773 230.488 323.806C235.244 341.341 237.581 354.308 235.738 363.254C233.505 374.098 225.13 379.033 207.477 379.033C175.261 379.033 173.742 371.439 171.709 364.499C170.139 359.138 167.085 349.635 163.121 349.635C159.157 349.635 156.485 359.138 155.524 364.499C154.562 369.86 154.223 379.033 120.692 379.033C99.1928 379.033 90.6676 376.871 90.7836 361.281C90.8485 352.557 93.6198 339.628 98.3381 320.518Z" fill="#EAFEDA"/>
<path d="M235.738 363.254C233.505 374.098 225.13 379.033 207.477 379.033C175.261 379.033 173.742 371.439 171.709 364.499C170.139 359.138 167.085 349.635 163.121 349.635C159.157 349.635 156.485 359.138 155.524 364.499C154.562 369.86 154.223 379.033 120.692 379.033C99.1928 379.033 90.6676 376.871 90.7836 361.281M235.738 363.254C237.581 354.308 235.244 341.341 230.488 323.806C222.073 292.773 209.45 256.087 204.19 241.623H125.952C121.13 250.17 108.858 277.915 98.3381 320.518C93.6198 339.628 90.8485 352.557 90.7836 361.281M235.738 363.254C235.742 361.281 233.776 356.285 225.886 352.077C217.997 347.869 209.45 350.324 206.162 352.077M90.7836 361.281C91.7677 359.09 95.0508 354.181 100.31 352.077C106.885 349.447 114.775 348.132 120.034 351.419" stroke="black" stroke-width="1.98188" stroke-linecap="round"/>
<path d="M258.912 195.379C258.912 238.813 216.355 274.324 163.451 274.324C110.548 274.324 67.9909 238.813 67.9909 195.379C67.9909 151.945 110.548 116.434 163.451 116.434C216.355 116.434 258.912 151.945 258.912 195.379Z" fill="#EAFEDA" stroke="black" stroke-width="1.98188"/>
<rect x="79.5518" y="211.234" width="15.1944" height="15.1944" rx="1.32125" fill="#858BDC"/>
<rect x="94.7462" y="226.428" width="10.57" height="10.57" rx="1.32125" fill="#84C0DC"/>
<rect x="221.587" y="229.731" width="15.1944" height="15.1944" rx="1.32125" fill="#858BDC"/>
<rect x="211.016" y="219.161" width="10.57" height="10.57" rx="1.32125" fill="#84C0DC"/>
<path d="M148.128 130.054C145.456 128.033 139.18 124.729 141.492 118.123C143.804 111.517 167.983 89.9806 170.89 91.0376C174.523 92.3588 191.699 114.159 190.378 122.087C189.332 128.363 171.25 134.569 164.974 136.991C159.689 136 151.261 132.425 148.128 130.054Z" fill="#84C0DC"/>
<path d="M164.974 136.991C159.689 136 151.261 132.425 148.128 130.054C145.456 128.033 139.18 124.729 141.492 118.123C143.804 111.517 167.983 89.9806 170.89 91.0376M164.974 136.991C171.25 134.569 189.332 128.363 190.378 122.087C191.699 114.159 174.523 92.3588 170.89 91.0376M164.974 136.991C163.388 117.965 168.247 98.0843 170.89 91.0376" stroke="black" stroke-width="1.98188"/>
<path d="M144.323 144.881C141.68 141.974 139.698 139.266 142.011 132.659C144.323 126.053 164.208 105.838 167.114 106.895C170.748 108.216 181.979 132.659 180.657 140.587C179.611 146.863 167.445 149.395 161.169 151.818C155.884 150.827 146.965 147.788 144.323 144.881Z" fill="#858BDC"/>
<path d="M161.169 151.818C155.884 150.827 146.965 147.788 144.323 144.881C141.68 141.974 139.698 139.266 142.011 132.659C144.323 126.053 164.208 105.838 167.114 106.895M161.169 151.818C167.445 149.395 179.611 146.863 180.657 140.587C181.979 132.659 170.748 108.216 167.114 106.895M161.169 151.818C159.583 132.792 164.472 113.942 167.114 106.895" stroke="black" stroke-width="1.98188"/>
<path d="M139.339 185.469C139.339 195.823 130.512 204.297 119.52 204.297C108.528 204.297 99.7011 195.823 99.7011 185.469C99.7011 175.116 108.528 166.642 119.52 166.642C130.512 166.642 139.339 175.116 139.339 185.469Z" fill="white" stroke="black" stroke-width="1.98188"/>
<ellipse cx="124.198" cy="185.139" rx="14.2574" ry="15.5247" fill="black"/>
<mask id="mask0_1_839" style="mask-type:alpha" maskUnits="userSpaceOnUse" x="109" y="169" width="30" height="32">
<ellipse cx="124.144" cy="185.198" rx="14.2035" ry="15.466" fill="black"/>
</mask>
<g mask="url(#mask0_1_839)">
<rect x="129.76" y="190.754" width="9.24876" height="9.24876" rx="1.32125" fill="white"/>
<path d="M123.153 189.433C123.153 190.163 123.745 190.754 124.474 190.754H128.438C129.168 190.754 129.759 190.163 129.759 189.433V185.469C129.759 184.74 129.168 184.148 128.438 184.148H124.474C123.745 184.148 123.153 184.74 123.153 185.469V189.433Z" fill="white"/>
<path d="M129.76 182.827C129.76 183.557 130.351 184.148 131.081 184.148H132.402C133.132 184.148 133.723 183.557 133.723 182.827V181.506C133.723 180.776 133.132 180.184 132.402 180.184H131.081C130.351 180.184 129.76 180.776 129.76 181.506V182.827Z" fill="white"/>
</g>
<path d="M230.505 185.469C230.505 195.823 221.678 204.297 210.686 204.297C199.695 204.297 190.868 195.823 190.868 185.469C190.868 175.116 199.695 166.642 210.686 166.642C221.678 166.642 230.505 175.116 230.505 185.469Z" fill="white" stroke="black" stroke-width="1.98188"/>
<ellipse cx="215.365" cy="185.139" rx="14.2574" ry="15.5247" fill="black"/>
<mask id="mask1_1_839" style="mask-type:alpha" maskUnits="userSpaceOnUse" x="100" y="167" width="39" height="37">
<path d="M138.049 185.564C138.049 195.288 129.767 203.196 119.52 203.196C109.273 203.196 100.991 195.288 100.991 185.564C100.991 175.839 109.273 167.931 119.52 167.931C129.767 167.931 138.049 175.839 138.049 185.564Z" fill="#EA3A44" stroke="black" stroke-width="0.597709"/>
</mask>
<g mask="url(#mask1_1_839)">
<rect x="88.4706" y="136.583" width="62.0988" height="36.3344" fill="#EAFEDA" stroke="black" stroke-width="1.98188"/>
</g>
<mask id="mask2_1_839" style="mask-type:alpha" maskUnits="userSpaceOnUse" x="201" y="169" width="29" height="32">
<ellipse cx="215.365" cy="185.139" rx="14.2574" ry="15.5247" fill="black"/>
</mask>
<g mask="url(#mask2_1_839)">
<rect x="220.926" y="190.754" width="9.24876" height="9.24876" rx="1.32125" fill="white"/>
<path d="M214.32 189.433C214.32 190.163 214.911 190.754 215.641 190.754H219.605C220.334 190.754 220.926 190.163 220.926 189.433V185.469C220.926 184.74 220.334 184.148 219.605 184.148H215.641C214.911 184.148 214.32 184.74 214.32 185.469V189.433Z" fill="white"/>
<path d="M220.926 182.827C220.926 183.557 221.518 184.148 222.247 184.148H223.569C224.298 184.148 224.89 183.557 224.89 182.827V181.506C224.89 180.776 224.298 180.184 223.569 180.184H222.247C221.518 180.184 220.926 180.776 220.926 181.506V182.827Z" fill="white"/>
</g>
<mask id="mask3_1_839" style="mask-type:alpha" maskUnits="userSpaceOnUse" x="191" y="167" width="39" height="37">
<path d="M229.215 185.438C229.215 195.162 220.933 203.07 210.686 203.07C200.439 203.07 192.157 195.162 192.157 185.438C192.157 175.713 200.439 167.805 210.686 167.805C220.933 167.805 229.215 175.713 229.215 185.438Z" fill="#EA3A44" stroke="black" stroke-width="0.597709"/>
</mask>
<g mask="url(#mask3_1_839)">
<rect x="179.637" y="136.583" width="62.0988" height="36.3344" fill="#EAFEDA" stroke="black" stroke-width="1.98188"/>
</g>
<rect x="123.153" y="164.329" width="5.285" height="5.285" rx="1.32125" fill="black"/>
<rect x="144.293" y="158.384" width="5.285" height="5.285" rx="1.32125" fill="black"/>
<rect x="136.366" y="163.008" width="7.92751" height="7.92751" rx="1.32125" fill="black"/>
<rect x="128.438" y="156.402" width="7.92751" height="7.92751" rx="1.32125" fill="black"/>
<rect width="5.285" height="5.285" rx="1.32125" transform="matrix(-1 0 0 1 205.071 164.99)" fill="black"/>
<rect width="5.285" height="5.285" rx="1.32125" transform="matrix(-1 0 0 1 183.931 159.044)" fill="black"/>
<rect width="7.92751" height="7.92751" rx="1.32125" transform="matrix(-1 0 0 1 191.858 163.669)" fill="black"/>
<rect width="7.92751" height="7.92751" rx="1.32125" transform="matrix(-1 0 0 1 199.786 157.062)" fill="black"/>
<path d="M174.682 234.686C161.697 239.182 153.54 235.421 148.917 233.176L195.112 217.18C193.18 221.694 187.666 230.19 174.682 234.686Z" fill="white" stroke="black" stroke-width="2.6425" stroke-linecap="round"/>
<rect x="173.361" y="296.455" width="29.7282" height="29.7282" rx="1.32125" fill="#84C0DC"/>
<rect x="160.148" y="326.183" width="13.2125" height="13.2125" rx="1.32125" fill="#858BDC"/>
<rect x="160.148" y="283.242" width="13.2125" height="13.2125" rx="1.32125" fill="#858BDC"/>
<rect x="143.633" y="296.455" width="16.5156" height="16.5156" rx="1.32125" fill="#84C0DC"/>
<rect x="137.026" y="289.848" width="6.60626" height="6.60626" rx="1.32125" fill="#858BDC"/>
<rect x="133.723" y="312.97" width="9.90938" height="9.90938" rx="1.32125" fill="#858BDC"/>
<g filter="url(#filter5_ii_1_839)">
<path d="M293.928 253.215C293.369 253.713 292.538 254.747 291.208 253.412C289.879 252.077 287.168 244.903 287.771 244.094C288.526 243.082 295.976 240.931 297.745 242.079C299.514 243.228 294.488 252.717 293.928 253.215Z" fill="#84C0DC"/>
</g>
<path d="M293.928 253.215C293.369 253.713 292.538 254.747 291.208 253.412C289.879 252.077 287.168 244.903 287.771 244.094C288.526 243.082 295.976 240.931 297.745 242.079C299.514 243.228 294.488 252.717 293.928 253.215Z" stroke="black" stroke-width="1.98188"/>
<path d="M223.238 304.151C206.326 293.119 206.282 273.944 208.374 265.735L201.437 268.362C201.437 268.362 195.624 271.777 201.437 290.689C207.251 309.601 221.917 318.488 228.523 320.567C228.523 320.567 225.55 305.659 223.238 304.151Z" fill="#84C0DC" stroke="black" stroke-width="2.33913" stroke-linecap="round"/>
<path d="M104.594 305.142C123.422 294.11 123.471 274.935 121.142 266.726L128.865 269.353C128.865 269.353 135.337 272.768 128.865 291.68C122.393 310.592 106.065 319.479 98.7101 321.558C98.7101 321.558 102.02 306.65 104.594 305.142Z" fill="#84C0DC" stroke="black" stroke-width="2.33913" stroke-linecap="round"/>
<path d="M226.871 295.439C208.638 298.61 195.051 309.312 190.537 314.267L183.931 337.058C191.528 337.829 211.347 352.583 255.609 330.122C299.87 307.661 313.413 231.358 306.146 231.358C298.88 231.358 289.961 267.362 275.097 279.584C260.233 291.806 249.663 291.475 226.871 295.439Z" fill="#D1FFAC" stroke="black" stroke-width="1.98188"/>
<g filter="url(#filter6_ii_1_839)">
<path d="M207.356 305.131C205.842 304.872 203.156 304.899 203.292 300.785C203.428 296.672 211.078 282.613 213.115 282.514C215.662 282.39 228.407 291.543 229.157 296.143C229.751 299.785 221.008 301.784 217.272 303.158C213.535 304.533 209.626 305.518 207.356 305.131Z" fill="#858BDC"/>
</g>
<g filter="url(#filter7_ii_1_839)">
<path d="M232.43 298.506C231.104 298.19 228.712 298.048 229.169 294.51C229.625 290.973 236.539 279.234 238.36 279.274C240.636 279.323 252.272 288.088 252.564 292.1C252.795 295.276 244.852 296.461 241.415 297.416C237.978 298.371 234.42 298.98 232.43 298.506Z" fill="#84C0DC"/>
</g>
<path d="M241.415 297.416C237.978 298.371 234.42 298.98 232.43 298.506C231.104 298.19 228.712 298.048 229.169 294.51C229.625 290.973 236.539 279.234 238.36 279.274M241.415 297.416C244.852 296.461 252.795 295.276 252.564 292.1C252.272 288.088 240.636 279.323 238.36 279.274M241.415 297.416C237.964 288.552 237.771 283.076 238.36 279.274" stroke="black" stroke-width="1.98188"/>
<g filter="url(#filter8_ii_1_839)">
<path d="M255.659 292.875C254.469 292.886 252.397 293.258 252.178 290.256C251.959 287.253 256.122 275.778 257.688 275.438C259.645 275.013 270.847 280.249 271.789 283.488C272.731 286.728 256.848 292.863 255.659 292.875Z" fill="#858BDC"/>
</g>
<path d="M255.659 292.875C254.469 292.886 252.397 293.258 252.178 290.256C251.959 287.253 256.122 275.778 257.688 275.438C259.645 275.013 270.847 280.249 271.789 283.488C272.731 286.728 256.848 292.863 255.659 292.875Z" stroke="black" stroke-width="1.98188"/>
<path d="M227.282 244.185C211.383 258.117 201.578 279.017 198.477 290.827C206.478 290.939 226.981 289.368 244.988 282.188C267.496 273.213 271.541 254.933 261.682 240.648C251.823 226.362 243.182 230.253 227.282 244.185Z" fill="#D1FFAC" stroke="black" stroke-width="1.98188" stroke-linecap="round"/>
<path d="M82.0856 281.905C95.4565 265.55 116.003 255.037 127.699 251.532C128.088 259.515 127.231 280.036 120.681 298.259C112.494 321.039 94.366 325.712 79.7465 316.366C76.5978 314.354 74.2938 312.368 72.7501 310.328C70.2753 307.057 69.7547 303.646 70.8417 299.758C72.2248 294.81 76.211 289.09 82.0856 281.905Z" fill="#D1FFAC" stroke="black" stroke-width="1.98188" stroke-linecap="round"/>
<path d="M98.3381 320.518C108.858 277.915 121.13 250.17 125.952 241.623H204.19C209.45 256.087 222.073 292.773 230.488 323.806C235.244 341.341 237.581 354.308 235.738 363.254C233.505 374.098 225.13 379.033 207.477 379.033C175.261 379.033 173.742 371.439 171.709 364.499C170.139 359.138 167.085 349.635 163.121 349.635C159.157 349.635 156.485 359.138 155.524 364.499C154.562 369.86 154.223 379.033 120.692 379.033C99.1928 379.033 90.6676 376.871 90.7836 361.281C90.8485 352.557 93.6198 339.628 98.3381 320.518Z" fill="#D1FFAC"/>
<path d="M235.738 363.254C233.505 374.098 225.13 379.033 207.477 379.033C175.261 379.033 173.742 371.439 171.709 364.499C170.139 359.138 167.085 349.635 163.121 349.635C159.157 349.635 156.485 359.138 155.524 364.499C154.562 369.86 154.223 379.033 120.692 379.033C99.1928 379.033 90.6676 376.871 90.7836 361.281M235.738 363.254C237.581 354.308 235.244 341.341 230.488 323.806C222.073 292.773 209.45 256.087 204.19 241.623H125.952C121.13 250.17 108.858 277.915 98.3381 320.518C93.6198 339.628 90.8485 352.557 90.7836 361.281M235.738 363.254C235.742 361.281 233.776 356.285 225.886 352.077C217.997 347.869 209.45 350.324 206.162 352.077M90.7836 361.281C91.7677 359.09 95.0508 354.181 100.31 352.077C106.885 349.447 114.775 348.132 120.034 351.419" stroke="black" stroke-width="1.98188" stroke-linecap="round"/>
<path d="M258.912 195.379C258.912 238.813 216.355 274.324 163.451 274.324C110.548 274.324 67.9909 238.813 67.9909 195.379C67.9909 151.945 110.548 116.434 163.451 116.434C216.355 116.434 258.912 151.945 258.912 195.379Z" fill="#D1FFAC" stroke="black" stroke-width="1.98188"/>
<rect x="79.5518" y="211.234" width="15.1944" height="15.1944" rx="1.32125" fill="#858BDC"/>
<rect x="94.7462" y="226.428" width="10.57" height="10.57" rx="1.32125" fill="#84C0DC"/>
<rect x="221.587" y="229.731" width="15.1944" height="15.1944" rx="1.32125" fill="#858BDC"/>
<rect x="211.016" y="219.161" width="10.57" height="10.57" rx="1.32125" fill="#84C0DC"/>
<path d="M148.128 130.054C145.456 128.033 139.18 124.729 141.492 118.123C143.804 111.517 167.983 89.9806 170.89 91.0376C174.523 92.3588 191.699 114.159 190.378 122.087C189.332 128.363 171.25 134.569 164.974 136.991C159.689 136 151.261 132.425 148.128 130.054Z" fill="#84C0DC"/>
<path d="M164.974 136.991C159.689 136 151.261 132.425 148.128 130.054C145.456 128.033 139.18 124.729 141.492 118.123C143.804 111.517 167.983 89.9806 170.89 91.0376M164.974 136.991C171.25 134.569 189.332 128.363 190.378 122.087C191.699 114.159 174.523 92.3588 170.89 91.0376M164.974 136.991C163.388 117.965 168.247 98.0843 170.89 91.0376" stroke="black" stroke-width="1.98188"/>
<path d="M144.323 144.881C141.68 141.974 139.698 139.266 142.011 132.659C144.323 126.053 164.208 105.838 167.114 106.895C170.748 108.216 181.979 132.659 180.657 140.587C179.611 146.863 167.445 149.395 161.169 151.818C155.884 150.827 146.965 147.788 144.323 144.881Z" fill="#858BDC"/>
<path d="M161.169 151.818C155.884 150.827 146.965 147.788 144.323 144.881C141.68 141.974 139.698 139.266 142.011 132.659C144.323 126.053 164.208 105.838 167.114 106.895M161.169 151.818C167.445 149.395 179.611 146.863 180.657 140.587C181.979 132.659 170.748 108.216 167.114 106.895M161.169 151.818C159.583 132.792 164.472 113.942 167.114 106.895" stroke="black" stroke-width="1.98188"/>
<path d="M139.339 185.469C139.339 195.823 130.512 204.297 119.52 204.297C108.528 204.297 99.7011 195.823 99.7011 185.469C99.7011 175.116 108.528 166.642 119.52 166.642C130.512 166.642 139.339 175.116 139.339 185.469Z" fill="white" stroke="black" stroke-width="1.98188"/>
<ellipse cx="124.198" cy="185.139" rx="14.2574" ry="15.5247" fill="black"/>
<mask id="mask4_1_839" style="mask-type:alpha" maskUnits="userSpaceOnUse" x="109" y="169" width="30" height="32">
<ellipse cx="124.144" cy="185.198" rx="14.2035" ry="15.466" fill="black"/>
</mask>
<g mask="url(#mask4_1_839)">
<rect x="129.76" y="190.754" width="9.24876" height="9.24876" rx="1.32125" fill="white"/>
<path d="M123.153 189.433C123.153 190.163 123.745 190.754 124.474 190.754H128.438C129.168 190.754 129.759 190.163 129.759 189.433V185.469C129.759 184.74 129.168 184.148 128.438 184.148H124.474C123.745 184.148 123.153 184.74 123.153 185.469V189.433Z" fill="white"/>
<path d="M129.76 182.827C129.76 183.557 130.351 184.148 131.081 184.148H132.402C133.132 184.148 133.723 183.557 133.723 182.827V181.506C133.723 180.776 133.132 180.184 132.402 180.184H131.081C130.351 180.184 129.76 180.776 129.76 181.506V182.827Z" fill="white"/>
</g>
<path d="M230.505 185.469C230.505 195.823 221.678 204.297 210.686 204.297C199.695 204.297 190.868 195.823 190.868 185.469C190.868 175.116 199.695 166.642 210.686 166.642C221.678 166.642 230.505 175.116 230.505 185.469Z" fill="white" stroke="black" stroke-width="1.98188"/>
<ellipse cx="215.365" cy="185.139" rx="14.2574" ry="15.5247" fill="black"/>
<mask id="mask5_1_839" style="mask-type:alpha" maskUnits="userSpaceOnUse" x="100" y="167" width="39" height="37">
<path d="M138.049 185.564C138.049 195.288 129.767 203.196 119.52 203.196C109.273 203.196 100.991 195.288 100.991 185.564C100.991 175.839 109.273 167.931 119.52 167.931C129.767 167.931 138.049 175.839 138.049 185.564Z" fill="#EA3A44" stroke="black" stroke-width="0.597709"/>
</mask>
<g mask="url(#mask5_1_839)">
<rect x="88.4706" y="136.583" width="62.0988" height="36.3344" fill="#EAFEDA" stroke="black" stroke-width="1.98188"/>
</g>
<mask id="mask6_1_839" style="mask-type:alpha" maskUnits="userSpaceOnUse" x="201" y="169" width="29" height="32">
<ellipse cx="215.365" cy="185.139" rx="14.2574" ry="15.5247" fill="black"/>
</mask>
<g mask="url(#mask6_1_839)">
<rect x="220.926" y="190.754" width="9.24876" height="9.24876" rx="1.32125" fill="white"/>
<path d="M214.32 189.433C214.32 190.163 214.911 190.754 215.641 190.754H219.605C220.334 190.754 220.926 190.163 220.926 189.433V185.469C220.926 184.74 220.334 184.148 219.605 184.148H215.641C214.911 184.148 214.32 184.74 214.32 185.469V189.433Z" fill="white"/>
<path d="M220.926 182.827C220.926 183.557 221.518 184.148 222.247 184.148H223.569C224.298 184.148 224.89 183.557 224.89 182.827V181.506C224.89 180.776 224.298 180.184 223.569 180.184H222.247C221.518 180.184 220.926 180.776 220.926 181.506V182.827Z" fill="white"/>
</g>
<mask id="mask7_1_839" style="mask-type:alpha" maskUnits="userSpaceOnUse" x="191" y="167" width="39" height="37">
<path d="M229.215 185.438C229.215 195.162 220.933 203.07 210.686 203.07C200.439 203.07 192.157 195.162 192.157 185.438C192.157 175.713 200.439 167.805 210.686 167.805C220.933 167.805 229.215 175.713 229.215 185.438Z" fill="#EA3A44" stroke="black" stroke-width="0.597709"/>
</mask>
<g mask="url(#mask7_1_839)">
<rect x="179.637" y="136.583" width="62.0988" height="36.3344" fill="#EAFEDA" stroke="black" stroke-width="1.98188"/>
</g>
<rect x="123.153" y="164.329" width="5.285" height="5.285" rx="1.32125" fill="black"/>
<rect x="144.293" y="158.384" width="5.285" height="5.285" rx="1.32125" fill="black"/>
<rect x="136.366" y="163.008" width="7.92751" height="7.92751" rx="1.32125" fill="black"/>
<rect x="128.438" y="156.402" width="7.92751" height="7.92751" rx="1.32125" fill="black"/>
<rect width="5.285" height="5.285" rx="1.32125" transform="matrix(-1 0 0 1 205.071 164.99)" fill="black"/>
<rect width="5.285" height="5.285" rx="1.32125" transform="matrix(-1 0 0 1 183.931 159.044)" fill="black"/>
<rect width="7.92751" height="7.92751" rx="1.32125" transform="matrix(-1 0 0 1 191.858 163.669)" fill="black"/>
<rect width="7.92751" height="7.92751" rx="1.32125" transform="matrix(-1 0 0 1 199.786 157.062)" fill="black"/>
<path d="M162.86 240.962C143.772 240.962 134.714 221.804 136.035 216.849C137.357 211.895 137.826 212.555 162.86 212.885C187.895 213.216 190.867 211.564 190.537 217.84C190.207 224.116 181.949 240.962 162.86 240.962Z" fill="#52232C" stroke="black" stroke-width="2.6425" stroke-linecap="round"/>
<rect x="173.361" y="296.455" width="29.7282" height="29.7282" rx="1.32125" fill="#84C0DC"/>
<rect x="160.148" y="326.183" width="13.2125" height="13.2125" rx="1.32125" fill="#858BDC"/>
<rect x="160.148" y="283.242" width="13.2125" height="13.2125" rx="1.32125" fill="#858BDC"/>
<rect x="143.633" y="296.455" width="16.5156" height="16.5156" rx="1.32125" fill="#84C0DC"/>
<rect x="137.026" y="289.848" width="6.60626" height="6.60626" rx="1.32125" fill="#858BDC"/>
<rect x="133.723" y="312.97" width="9.90938" height="9.90938" rx="1.32125" fill="#858BDC"/>
<path d="M104.499 382.119C103.55 381.509 104.251 372.354 106.073 370.107C107.894 367.86 113.11 370.173 113.225 372.775C113.339 375.377 105.447 382.729 104.499 382.119Z" fill="white" stroke="black" stroke-width="1.98188" stroke-linecap="round"/>
<path d="M228.721 380.073C227.778 380.691 219.7 376.325 218.389 373.747C217.077 371.169 221.313 367.346 223.736 368.3C226.16 369.254 229.664 379.454 228.721 380.073Z" fill="white" stroke="black" stroke-width="1.98188" stroke-linecap="round"/>
<path d="M89.3931 375.475C88.7443 374.553 92.8453 366.337 95.3794 364.942C97.9135 363.547 101.872 367.657 100.998 370.11C100.123 372.563 90.042 376.397 89.3931 375.475Z" fill="white" stroke="black" stroke-width="1.98188" stroke-linecap="round"/>
<path d="M238.914 371.871C238.134 372.686 229.282 370.246 227.425 368.029C225.567 365.811 228.836 361.134 231.411 361.519C233.987 361.904 239.694 371.056 238.914 371.871Z" fill="white" stroke="black" stroke-width="1.98188" stroke-linecap="round"/>
<path d="M162.13 226.441C154.731 226.705 147.596 230.612 144.954 232.374C149.909 236.338 154.533 239.654 163.782 239.654C173.366 239.654 179.637 234.356 181.949 231.713C178.205 229.731 169.529 226.177 162.13 226.441Z" fill="#DE2E50"/>
<path d="M189.813 219.161H136.299C135.961 219.161 135.68 218.907 135.668 218.569C135.639 217.774 135.665 216.33 136.118 215.198C136.779 213.546 138.43 213.216 139.091 213.216C139.751 213.216 185.995 213.546 187.317 213.546C188.638 213.546 189.629 213.876 190.289 215.528C190.755 216.692 190.564 218.019 190.411 218.702C190.349 218.98 190.098 219.161 189.813 219.161Z" fill="white" stroke="black" stroke-width="1.98188"/>
<path d="M355.039 142H352.447L344.695 133.312V142H342.535V124.864H344.695V133.168L352.255 124.864H354.703L347.263 133.192L355.039 142ZM361.955 128.92C363.523 128.92 364.683 129.264 365.435 129.952C366.187 130.64 366.563 131.736 366.563 133.24V142H365.027L364.619 140.176H364.523C364.155 140.64 363.771 141.032 363.371 141.352C362.987 141.656 362.539 141.88 362.027 142.024C361.531 142.168 360.923 142.24 360.203 142.24C359.435 142.24 358.739 142.104 358.115 141.832C357.507 141.56 357.027 141.144 356.675 140.584C356.323 140.008 356.147 139.288 356.147 138.424C356.147 137.144 356.651 136.16 357.659 135.472C358.667 134.768 360.219 134.384 362.315 134.32L364.499 134.248V133.48C364.499 132.408 364.267 131.664 363.803 131.248C363.339 130.832 362.683 130.624 361.835 130.624C361.163 130.624 360.523 130.728 359.915 130.936C359.307 131.128 358.739 131.352 358.211 131.608L357.563 130.024C358.123 129.72 358.787 129.464 359.555 129.256C360.323 129.032 361.123 128.92 361.955 128.92ZM362.579 135.784C360.979 135.848 359.867 136.104 359.243 136.552C358.635 137 358.331 137.632 358.331 138.448C358.331 139.168 358.547 139.696 358.979 140.032C359.427 140.368 359.995 140.536 360.683 140.536C361.771 140.536 362.675 140.24 363.395 139.648C364.115 139.04 364.475 138.112 364.475 136.864V135.712L362.579 135.784ZM378.144 129.136H380.448L374.952 135.328L380.904 142H378.456L372.648 135.472V142H370.536V129.136H372.648V135.376L378.144 129.136ZM388.111 128.92C389.679 128.92 390.839 129.264 391.591 129.952C392.343 130.64 392.719 131.736 392.719 133.24V142H391.183L390.775 140.176H390.679C390.311 140.64 389.927 141.032 389.527 141.352C389.143 141.656 388.695 141.88 388.183 142.024C387.687 142.168 387.079 142.24 386.359 142.24C385.591 142.24 384.895 142.104 384.271 141.832C383.663 141.56 383.183 141.144 382.831 140.584C382.479 140.008 382.303 139.288 382.303 138.424C382.303 137.144 382.807 136.16 383.815 135.472C384.823 134.768 386.375 134.384 388.471 134.32L390.655 134.248V133.48C390.655 132.408 390.423 131.664 389.959 131.248C389.495 130.832 388.839 130.624 387.991 130.624C387.319 130.624 386.679 130.728 386.071 130.936C385.463 131.128 384.895 131.352 384.367 131.608L383.719 130.024C384.279 129.72 384.943 129.464 385.711 129.256C386.479 129.032 387.279 128.92 388.111 128.92ZM388.735 135.784C387.135 135.848 386.023 136.104 385.399 136.552C384.791 137 384.487 137.632 384.487 138.448C384.487 139.168 384.703 139.696 385.135 140.032C385.583 140.368 386.151 140.536 386.839 140.536C387.927 140.536 388.831 140.24 389.551 139.648C390.271 139.04 390.631 138.112 390.631 136.864V135.712L388.735 135.784ZM397.484 142H395.036L398.708 136.6C398.212 136.472 397.732 136.272 397.268 136C396.804 135.712 396.428 135.32 396.14 134.824C395.852 134.312 395.708 133.68 395.708 132.928C395.708 131.696 396.124 130.76 396.956 130.12C397.788 129.464 398.892 129.136 400.268 129.136H406.028V142H403.916V136.888H400.796L397.484 142ZM397.748 132.952C397.748 133.688 398.02 134.24 398.564 134.608C399.124 134.96 399.9 135.136 400.892 135.136H403.916V130.888H400.484C399.508 130.888 398.804 131.08 398.372 131.464C397.956 131.848 397.748 132.344 397.748 132.952ZM409.02 136.551V134.582H414.832V136.551H409.02ZM426.713 130.912H422.513V142H420.425V130.912H416.273V129.136H426.713V130.912ZM440.197 135.544C440.197 136.616 440.053 137.568 439.765 138.4C439.493 139.216 439.093 139.912 438.565 140.488C438.053 141.064 437.421 141.504 436.669 141.808C435.933 142.096 435.109 142.24 434.197 142.24C433.349 142.24 432.565 142.096 431.845 141.808C431.125 141.504 430.501 141.064 429.973 140.488C429.445 139.912 429.029 139.216 428.725 138.4C428.437 137.568 428.293 136.616 428.293 135.544C428.293 134.12 428.533 132.92 429.013 131.944C429.493 130.952 430.181 130.2 431.077 129.688C431.973 129.16 433.037 128.896 434.269 128.896C435.437 128.896 436.461 129.16 437.341 129.688C438.237 130.2 438.933 130.952 439.429 131.944C439.941 132.92 440.197 134.12 440.197 135.544ZM430.477 135.544C430.477 136.552 430.605 137.432 430.861 138.184C431.133 138.92 431.549 139.488 432.109 139.888C432.669 140.288 433.381 140.488 434.245 140.488C435.109 140.488 435.821 140.288 436.381 139.888C436.941 139.488 437.349 138.92 437.605 138.184C437.877 137.432 438.013 136.552 438.013 135.544C438.013 134.52 437.877 133.648 437.605 132.928C437.333 132.208 436.917 131.656 436.357 131.272C435.813 130.872 435.101 130.672 434.221 130.672C432.909 130.672 431.957 131.104 431.365 131.968C430.773 132.832 430.477 134.024 430.477 135.544ZM451.77 136.984C451.77 137.128 451.762 137.336 451.746 137.608C451.746 137.864 451.738 138.144 451.722 138.448C451.706 138.736 451.69 139.016 451.674 139.288C451.658 139.544 451.642 139.752 451.626 139.912L458.514 129.136H461.106V142H459.138V134.416C459.138 134.16 459.138 133.824 459.138 133.408C459.154 132.992 459.17 132.584 459.186 132.184C459.202 131.768 459.218 131.456 459.234 131.248L452.394 142H449.778V129.136H451.77V136.984ZM467.312 129.136V134.488H474.296V129.136H476.408V142H474.296V136.264H467.312V142H465.2V129.136H467.312ZM488.161 128.944C489.441 129.056 490.553 129.392 491.497 129.952C492.457 130.512 493.201 131.264 493.729 132.208C494.257 133.152 494.521 134.272 494.521 135.568C494.521 136.864 494.265 137.992 493.753 138.952C493.241 139.896 492.513 140.648 491.569 141.208C490.625 141.752 489.489 142.08 488.161 142.192V147.76H486.097V142.192C484.833 142.08 483.721 141.752 482.761 141.208C481.801 140.648 481.057 139.896 480.529 138.952C480.001 137.992 479.737 136.864 479.737 135.568C479.737 134.256 479.993 133.128 480.505 132.184C481.017 131.224 481.753 130.472 482.713 129.928C483.673 129.368 484.825 129.04 486.169 128.944V123.76H488.161V128.944ZM486.169 130.696C485.193 130.792 484.393 131.04 483.769 131.44C483.145 131.84 482.681 132.384 482.377 133.072C482.089 133.76 481.945 134.592 481.945 135.568C481.945 136.528 482.089 137.36 482.377 138.064C482.681 138.752 483.145 139.304 483.769 139.72C484.393 140.12 485.193 140.368 486.169 140.464V130.696ZM488.161 140.464C489.121 140.352 489.905 140.096 490.513 139.696C491.137 139.296 491.593 138.752 491.881 138.064C492.185 137.36 492.337 136.528 492.337 135.568C492.337 134.608 492.185 133.784 491.881 133.096C491.577 132.408 491.113 131.864 490.489 131.464C489.881 131.064 489.105 130.816 488.161 130.72V140.464ZM502.744 128.92C504.312 128.92 505.472 129.264 506.224 129.952C506.976 130.64 507.352 131.736 507.352 133.24V142H505.816L505.408 140.176H505.312C504.944 140.64 504.56 141.032 504.16 141.352C503.776 141.656 503.328 141.88 502.816 142.024C502.32 142.168 501.712 142.24 500.992 142.24C500.224 142.24 499.528 142.104 498.904 141.832C498.296 141.56 497.816 141.144 497.464 140.584C497.112 140.008 496.936 139.288 496.936 138.424C496.936 137.144 497.44 136.16 498.448 135.472C499.456 134.768 501.008 134.384 503.104 134.32L505.288 134.248V133.48C505.288 132.408 505.056 131.664 504.592 131.248C504.128 130.832 503.472 130.624 502.624 130.624C501.952 130.624 501.312 130.728 500.704 130.936C500.096 131.128 499.528 131.352 499 131.608L498.352 130.024C498.912 129.72 499.576 129.464 500.344 129.256C501.112 129.032 501.912 128.92 502.744 128.92ZM503.368 135.784C501.768 135.848 500.656 136.104 500.032 136.552C499.424 137 499.12 137.632 499.12 138.448C499.12 139.168 499.336 139.696 499.768 140.032C500.216 140.368 500.784 140.536 501.472 140.536C502.56 140.536 503.464 140.24 504.184 139.648C504.904 139.04 505.264 138.112 505.264 136.864V135.712L503.368 135.784ZM528.432 129.136V142H526.32V130.936H519.672V142H517.56V129.136H528.432ZM538.656 128.896C540.24 128.896 541.512 129.448 542.472 130.552C543.448 131.656 543.936 133.32 543.936 135.544C543.936 137 543.712 138.232 543.264 139.24C542.832 140.232 542.216 140.984 541.416 141.496C540.632 141.992 539.704 142.24 538.632 142.24C537.976 142.24 537.392 142.152 536.88 141.976C536.368 141.8 535.928 141.576 535.56 141.304C535.208 141.016 534.904 140.704 534.648 140.368H534.504C534.536 140.64 534.568 140.984 534.6 141.4C534.632 141.816 534.648 142.176 534.648 142.48V147.76H532.536V129.136H534.264L534.552 130.888H534.648C534.904 130.52 535.208 130.184 535.56 129.88C535.928 129.576 536.36 129.336 536.856 129.16C537.368 128.984 537.968 128.896 538.656 128.896ZM538.272 130.672C537.408 130.672 536.712 130.84 536.184 131.176C535.656 131.496 535.272 131.984 535.032 132.64C534.792 133.296 534.664 134.128 534.648 135.136V135.544C534.648 136.6 534.76 137.496 534.984 138.232C535.208 138.968 535.584 139.528 536.112 139.912C536.656 140.296 537.392 140.488 538.32 140.488C539.104 140.488 539.744 140.272 540.24 139.84C540.752 139.408 541.128 138.824 541.368 138.088C541.624 137.336 541.752 136.48 541.752 135.52C541.752 134.048 541.464 132.872 540.888 131.992C540.328 131.112 539.456 130.672 538.272 130.672ZM558.486 135.544C558.486 136.616 558.342 137.568 558.054 138.4C557.782 139.216 557.382 139.912 556.854 140.488C556.342 141.064 555.71 141.504 554.958 141.808C554.222 142.096 553.398 142.24 552.486 142.24C551.638 142.24 550.854 142.096 550.134 141.808C549.414 141.504 548.79 141.064 548.262 140.488C547.734 139.912 547.318 139.216 547.014 138.4C546.726 137.568 546.582 136.616 546.582 135.544C546.582 134.12 546.822 132.92 547.302 131.944C547.782 130.952 548.47 130.2 549.366 129.688C550.262 129.16 551.326 128.896 552.558 128.896C553.726 128.896 554.75 129.16 555.63 129.688C556.526 130.2 557.222 130.952 557.718 131.944C558.23 132.92 558.486 134.12 558.486 135.544ZM548.766 135.544C548.766 136.552 548.894 137.432 549.15 138.184C549.422 138.92 549.838 139.488 550.398 139.888C550.958 140.288 551.67 140.488 552.534 140.488C553.398 140.488 554.11 140.288 554.67 139.888C555.23 139.488 555.638 138.92 555.894 138.184C556.166 137.432 556.302 136.552 556.302 135.544C556.302 134.52 556.166 133.648 555.894 132.928C555.622 132.208 555.206 131.656 554.646 131.272C554.102 130.872 553.39 130.672 552.51 130.672C551.198 130.672 550.246 131.104 549.654 131.968C549.062 132.832 548.766 134.024 548.766 135.544ZM427.747 164.984C427.747 165.128 427.739 165.336 427.723 165.608C427.723 165.864 427.715 166.144 427.699 166.448C427.683 166.736 427.667 167.016 427.651 167.288C427.635 167.544 427.619 167.752 427.603 167.912L434.491 157.136H437.083V170H435.115V162.416C435.115 162.16 435.115 161.824 435.115 161.408C435.131 160.992 435.147 160.584 435.163 160.184C435.179 159.768 435.195 159.456 435.211 159.248L428.371 170H425.755V157.136H427.747V164.984ZM449.025 157.136V158.912H443.289V170H441.177V157.136H449.025ZM457.68 156.896C459.264 156.896 460.536 157.448 461.496 158.552C462.472 159.656 462.96 161.32 462.96 163.544C462.96 165 462.736 166.232 462.288 167.24C461.856 168.232 461.24 168.984 460.44 169.496C459.656 169.992 458.728 170.24 457.656 170.24C457 170.24 456.416 170.152 455.904 169.976C455.392 169.8 454.952 169.576 454.584 169.304C454.232 169.016 453.928 168.704 453.672 168.368H453.528C453.56 168.64 453.592 168.984 453.624 169.4C453.656 169.816 453.672 170.176 453.672 170.48V175.76H451.56V157.136H453.288L453.576 158.888H453.672C453.928 158.52 454.232 158.184 454.584 157.88C454.952 157.576 455.384 157.336 455.88 157.16C456.392 156.984 456.992 156.896 457.68 156.896ZM457.296 158.672C456.432 158.672 455.736 158.84 455.208 159.176C454.68 159.496 454.296 159.984 454.056 160.64C453.816 161.296 453.688 162.128 453.672 163.136V163.544C453.672 164.6 453.784 165.496 454.008 166.232C454.232 166.968 454.608 167.528 455.136 167.912C455.68 168.296 456.416 168.488 457.344 168.488C458.128 168.488 458.768 168.272 459.264 167.84C459.776 167.408 460.152 166.824 460.392 166.088C460.648 165.336 460.776 164.48 460.776 163.52C460.776 162.048 460.488 160.872 459.912 159.992C459.352 159.112 458.48 158.672 457.296 158.672ZM464.075 157.136H466.331L469.115 164.456C469.275 164.888 469.419 165.304 469.547 165.704C469.691 166.104 469.819 166.496 469.931 166.88C470.043 167.248 470.131 167.608 470.195 167.96H470.291C470.387 167.56 470.539 167.04 470.747 166.4C470.955 165.744 471.171 165.088 471.395 164.432L474.011 157.136H476.291L470.747 171.776C470.443 172.576 470.083 173.272 469.667 173.864C469.267 174.472 468.771 174.936 468.179 175.256C467.603 175.592 466.899 175.76 466.067 175.76C465.683 175.76 465.347 175.736 465.059 175.688C464.771 175.656 464.523 175.616 464.315 175.568V173.888C464.491 173.92 464.699 173.952 464.939 173.984C465.195 174.016 465.459 174.032 465.731 174.032C466.227 174.032 466.651 173.936 467.003 173.744C467.371 173.568 467.683 173.304 467.939 172.952C468.195 172.616 468.411 172.216 468.587 171.752L469.259 170.048L464.075 157.136ZM327.664 198V180.864H340.528V198H338.392V182.76H329.824V198H327.664ZM351.051 184.896C352.635 184.896 353.907 185.448 354.867 186.552C355.843 187.656 356.331 189.32 356.331 191.544C356.331 193 356.107 194.232 355.659 195.24C355.227 196.232 354.611 196.984 353.811 197.496C353.027 197.992 352.099 198.24 351.027 198.24C350.371 198.24 349.787 198.152 349.275 197.976C348.763 197.8 348.323 197.576 347.955 197.304C347.603 197.016 347.299 196.704 347.043 196.368H346.899C346.931 196.64 346.963 196.984 346.995 197.4C347.027 197.816 347.043 198.176 347.043 198.48V203.76H344.931V185.136H346.659L346.947 186.888H347.043C347.299 186.52 347.603 186.184 347.955 185.88C348.323 185.576 348.755 185.336 349.251 185.16C349.763 184.984 350.363 184.896 351.051 184.896ZM350.667 186.672C349.803 186.672 349.107 186.84 348.579 187.176C348.051 187.496 347.667 187.984 347.427 188.64C347.187 189.296 347.059 190.128 347.043 191.136V191.544C347.043 192.6 347.155 193.496 347.379 194.232C347.603 194.968 347.979 195.528 348.507 195.912C349.051 196.296 349.787 196.488 350.715 196.488C351.499 196.488 352.139 196.272 352.635 195.84C353.147 195.408 353.523 194.824 353.763 194.088C354.019 193.336 354.147 192.48 354.147 191.52C354.147 190.048 353.859 188.872 353.283 187.992C352.723 187.112 351.851 186.672 350.667 186.672ZM364.664 184.896C365.768 184.896 366.712 185.136 367.496 185.616C368.296 186.096 368.904 186.776 369.32 187.656C369.752 188.52 369.968 189.536 369.968 190.704V191.976H361.16C361.192 193.432 361.56 194.544 362.264 195.312C362.984 196.064 363.984 196.44 365.264 196.44C366.08 196.44 366.8 196.368 367.424 196.224C368.064 196.064 368.72 195.84 369.392 195.552V197.4C368.736 197.688 368.088 197.896 367.448 198.024C366.808 198.168 366.048 198.24 365.168 198.24C363.952 198.24 362.872 197.992 361.928 197.496C361 197 360.272 196.264 359.744 195.288C359.232 194.296 358.976 193.088 358.976 191.664C358.976 190.256 359.208 189.048 359.672 188.04C360.152 187.032 360.816 186.256 361.664 185.712C362.528 185.168 363.528 184.896 364.664 184.896ZM364.64 186.624C363.632 186.624 362.832 186.952 362.24 187.608C361.664 188.248 361.32 189.144 361.208 190.296H367.76C367.76 189.56 367.648 188.92 367.424 188.376C367.2 187.832 366.856 187.408 366.392 187.104C365.944 186.784 365.36 186.624 364.64 186.624ZM387.043 185.136V198H385.147V189.792C385.147 189.456 385.155 189.104 385.171 188.736C385.203 188.368 385.235 188.008 385.267 187.656H385.195L380.995 198H379.219L375.139 187.656H375.067C375.099 188.008 375.115 188.368 375.115 188.736C375.131 189.104 375.139 189.48 375.139 189.864V198H373.243V185.136H376.051L380.107 195.48L384.235 185.136H387.043ZM389.133 185.136H391.389L394.173 192.456C394.333 192.888 394.477 193.304 394.605 193.704C394.749 194.104 394.877 194.496 394.989 194.88C395.101 195.248 395.189 195.608 395.253 195.96H395.349C395.445 195.56 395.597 195.04 395.805 194.4C396.013 193.744 396.229 193.088 396.453 192.432L399.069 185.136H401.349L395.805 199.776C395.501 200.576 395.141 201.272 394.725 201.864C394.325 202.472 393.829 202.936 393.237 203.256C392.661 203.592 391.957 203.76 391.125 203.76C390.741 203.76 390.405 203.736 390.117 203.688C389.829 203.656 389.581 203.616 389.373 203.568V201.888C389.549 201.92 389.757 201.952 389.997 201.984C390.253 202.016 390.517 202.032 390.789 202.032C391.285 202.032 391.709 201.936 392.061 201.744C392.429 201.568 392.741 201.304 392.997 200.952C393.253 200.616 393.469 200.216 393.645 199.752L394.317 198.048L389.133 185.136ZM420.808 185.136V196.248H422.68V202.44H420.568V198H403.384V185.136H405.496V196.224H411.04V185.136H413.152V196.224H418.72V185.136H420.808ZM430.102 184.896C431.206 184.896 432.15 185.136 432.934 185.616C433.734 186.096 434.342 186.776 434.758 187.656C435.19 188.52 435.406 189.536 435.406 190.704V191.976H426.598C426.63 193.432 426.998 194.544 427.702 195.312C428.422 196.064 429.422 196.44 430.702 196.44C431.518 196.44 432.238 196.368 432.862 196.224C433.502 196.064 434.158 195.84 434.83 195.552V197.4C434.174 197.688 433.526 197.896 432.886 198.024C432.246 198.168 431.486 198.24 430.606 198.24C429.39 198.24 428.31 197.992 427.366 197.496C426.438 197 425.71 196.264 425.182 195.288C424.67 194.296 424.414 193.088 424.414 191.664C424.414 190.256 424.646 189.048 425.11 188.04C425.59 187.032 426.254 186.256 427.102 185.712C427.966 185.168 428.966 184.896 430.102 184.896ZM430.078 186.624C429.07 186.624 428.27 186.952 427.678 187.608C427.102 188.248 426.758 189.144 426.646 190.296H433.198C433.198 189.56 433.086 188.92 432.862 188.376C432.638 187.832 432.294 187.408 431.83 187.104C431.382 186.784 430.798 186.624 430.078 186.624ZM443.841 198.24C442.705 198.24 441.689 198.008 440.793 197.544C439.913 197.08 439.217 196.36 438.705 195.384C438.209 194.408 437.961 193.16 437.961 191.64C437.961 190.056 438.225 188.768 438.753 187.776C439.281 186.784 439.993 186.056 440.889 185.592C441.801 185.128 442.833 184.896 443.985 184.896C444.641 184.896 445.273 184.968 445.881 185.112C446.489 185.24 446.985 185.4 447.369 185.592L446.721 187.344C446.337 187.2 445.889 187.064 445.377 186.936C444.865 186.808 444.385 186.744 443.937 186.744C443.073 186.744 442.361 186.928 441.801 187.296C441.241 187.664 440.825 188.208 440.553 188.928C440.281 189.648 440.145 190.544 440.145 191.616C440.145 192.64 440.281 193.512 440.553 194.232C440.825 194.952 441.233 195.496 441.777 195.864C442.321 196.232 443.001 196.416 443.817 196.416C444.521 196.416 445.137 196.344 445.665 196.2C446.209 196.056 446.705 195.88 447.153 195.672V197.544C446.721 197.768 446.241 197.936 445.713 198.048C445.201 198.176 444.577 198.24 443.841 198.24ZM459.092 186.912H454.892V198H452.804V186.912H448.652V185.136H459.092V186.912ZM471.97 188.376C471.97 189.176 471.73 189.8 471.25 190.248C470.77 190.696 470.154 191 469.402 191.16V191.256C470.202 191.368 470.898 191.656 471.49 192.12C472.082 192.568 472.378 193.272 472.378 194.232C472.378 194.776 472.274 195.28 472.066 195.744C471.874 196.208 471.57 196.608 471.154 196.944C470.738 197.28 470.202 197.544 469.546 197.736C468.89 197.912 468.098 198 467.17 198H461.626V185.136H467.146C468.058 185.136 468.874 185.24 469.594 185.448C470.33 185.64 470.906 185.976 471.322 186.456C471.754 186.92 471.97 187.56 471.97 188.376ZM470.194 194.232C470.194 193.496 469.914 192.968 469.354 192.648C468.794 192.328 467.97 192.168 466.882 192.168H463.738V196.296H466.93C467.986 196.296 468.794 196.144 469.354 195.84C469.914 195.52 470.194 194.984 470.194 194.232ZM469.834 188.64C469.834 188.032 469.61 187.592 469.162 187.32C468.73 187.032 468.018 186.888 467.026 186.888H463.738V190.416H466.642C467.682 190.416 468.474 190.272 469.018 189.984C469.562 189.696 469.834 189.248 469.834 188.64ZM480.326 184.92C481.894 184.92 483.054 185.264 483.806 185.952C484.558 186.64 484.934 187.736 484.934 189.24V198H483.398L482.99 196.176H482.894C482.526 196.64 482.142 197.032 481.742 197.352C481.358 197.656 480.91 197.88 480.398 198.024C479.902 198.168 479.294 198.24 478.574 198.24C477.806 198.24 477.11 198.104 476.486 197.832C475.878 197.56 475.398 197.144 475.046 196.584C474.694 196.008 474.518 195.288 474.518 194.424C474.518 193.144 475.022 192.16 476.03 191.472C477.038 190.768 478.59 190.384 480.686 190.32L482.87 190.248V189.48C482.87 188.408 482.638 187.664 482.174 187.248C481.71 186.832 481.054 186.624 480.206 186.624C479.534 186.624 478.894 186.728 478.286 186.936C477.678 187.128 477.11 187.352 476.582 187.608L475.934 186.024C476.494 185.72 477.158 185.464 477.926 185.256C478.694 185.032 479.494 184.92 480.326 184.92ZM480.95 191.784C479.35 191.848 478.238 192.104 477.614 192.552C477.006 193 476.702 193.632 476.702 194.448C476.702 195.168 476.918 195.696 477.35 196.032C477.798 196.368 478.366 196.536 479.054 196.536C480.142 196.536 481.046 196.24 481.766 195.648C482.486 195.04 482.846 194.112 482.846 192.864V191.712L480.95 191.784ZM491.109 195.211L491.285 195.48C491.176 195.902 491.043 196.352 490.887 196.828C490.738 197.305 490.57 197.785 490.383 198.27C490.203 198.754 490.012 199.234 489.809 199.711C489.613 200.195 489.418 200.656 489.223 201.094H487.605C487.723 200.617 487.836 200.121 487.945 199.605C488.062 199.09 488.172 198.574 488.273 198.059C488.383 197.551 488.48 197.055 488.566 196.57C488.652 196.078 488.727 195.625 488.789 195.211H491.109ZM508.75 185.136H511.054L505.558 191.328L511.51 198H509.062L503.254 191.472V198H501.142V185.136H503.254V191.376L508.75 185.136ZM518.717 184.92C520.285 184.92 521.445 185.264 522.197 185.952C522.949 186.64 523.325 187.736 523.325 189.24V198H521.789L521.381 196.176H521.285C520.917 196.64 520.533 197.032 520.133 197.352C519.749 197.656 519.301 197.88 518.789 198.024C518.293 198.168 517.685 198.24 516.965 198.24C516.197 198.24 515.501 198.104 514.877 197.832C514.269 197.56 513.789 197.144 513.437 196.584C513.085 196.008 512.909 195.288 512.909 194.424C512.909 193.144 513.413 192.16 514.421 191.472C515.429 190.768 516.981 190.384 519.077 190.32L521.261 190.248V189.48C521.261 188.408 521.029 187.664 520.565 187.248C520.101 186.832 519.445 186.624 518.597 186.624C517.925 186.624 517.285 186.728 516.677 186.936C516.069 187.128 515.501 187.352 514.973 187.608L514.325 186.024C514.885 185.72 515.549 185.464 516.317 185.256C517.085 185.032 517.885 184.92 518.717 184.92ZM519.341 191.784C517.741 191.848 516.629 192.104 516.005 192.552C515.397 193 515.093 193.632 515.093 194.448C515.093 195.168 515.309 195.696 515.741 196.032C516.189 196.368 516.757 196.536 517.445 196.536C518.533 196.536 519.437 196.24 520.157 195.648C520.877 195.04 521.237 194.112 521.237 192.864V191.712L519.341 191.784ZM534.906 185.136H537.21L531.714 191.328L537.666 198H535.218L529.41 191.472V198H527.298V185.136H529.41V191.376L534.906 185.136ZM541.993 192.984C541.993 193.128 541.985 193.336 541.969 193.608C541.969 193.864 541.961 194.144 541.945 194.448C541.929 194.736 541.913 195.016 541.897 195.288C541.881 195.544 541.865 195.752 541.849 195.912L548.737 185.136H551.329V198H549.361V190.416C549.361 190.16 549.361 189.824 549.361 189.408C549.377 188.992 549.393 188.584 549.409 188.184C549.425 187.768 549.441 187.456 549.457 187.248L542.617 198H540.001V185.136H541.993V192.984ZM560.391 184.896C561.495 184.896 562.439 185.136 563.223 185.616C564.023 186.096 564.631 186.776 565.047 187.656C565.479 188.52 565.695 189.536 565.695 190.704V191.976H556.887C556.919 193.432 557.287 194.544 557.991 195.312C558.711 196.064 559.711 196.44 560.991 196.44C561.807 196.44 562.527 196.368 563.151 196.224C563.791 196.064 564.447 195.84 565.119 195.552V197.4C564.463 197.688 563.815 197.896 563.175 198.024C562.535 198.168 561.775 198.24 560.895 198.24C559.679 198.24 558.599 197.992 557.655 197.496C556.727 197 555.999 196.264 555.471 195.288C554.959 194.296 554.703 193.088 554.703 191.664C554.703 190.256 554.935 189.048 555.399 188.04C555.879 187.032 556.543 186.256 557.391 185.712C558.255 185.168 559.255 184.896 560.391 184.896ZM560.367 186.624C559.359 186.624 558.559 186.952 557.967 187.608C557.391 188.248 557.047 189.144 556.935 190.296H563.487C563.487 189.56 563.375 188.92 563.151 188.376C562.927 187.832 562.583 187.408 562.119 187.104C561.671 186.784 561.087 186.624 560.367 186.624ZM567.891 192.551V190.582H573.703V192.551H567.891ZM392.74 214.912H388.54V226H386.452V214.912H382.3V213.136H392.74V214.912ZM406.224 219.544C406.224 220.616 406.08 221.568 405.792 222.4C405.52 223.216 405.12 223.912 404.592 224.488C404.08 225.064 403.448 225.504 402.696 225.808C401.96 226.096 401.136 226.24 400.224 226.24C399.376 226.24 398.592 226.096 397.872 225.808C397.152 225.504 396.528 225.064 396 224.488C395.472 223.912 395.056 223.216 394.752 222.4C394.464 221.568 394.32 220.616 394.32 219.544C394.32 218.12 394.56 216.92 395.04 215.944C395.52 214.952 396.208 214.2 397.104 213.688C398 213.16 399.064 212.896 400.296 212.896C401.464 212.896 402.488 213.16 403.368 213.688C404.264 214.2 404.96 214.952 405.456 215.944C405.968 216.92 406.224 218.12 406.224 219.544ZM396.504 219.544C396.504 220.552 396.632 221.432 396.888 222.184C397.16 222.92 397.576 223.488 398.136 223.888C398.696 224.288 399.408 224.488 400.272 224.488C401.136 224.488 401.848 224.288 402.408 223.888C402.968 223.488 403.376 222.92 403.632 222.184C403.904 221.432 404.04 220.552 404.04 219.544C404.04 218.52 403.904 217.648 403.632 216.928C403.36 216.208 402.944 215.656 402.384 215.272C401.84 214.872 401.128 214.672 400.248 214.672C398.936 214.672 397.984 215.104 397.392 215.968C396.8 216.832 396.504 218.024 396.504 219.544ZM428.502 230.464H426.438V226H415.806V213.136H417.918V224.224H424.566V213.136H426.678V224.248H428.502V230.464ZM432.962 220.984C432.962 221.128 432.954 221.336 432.938 221.608C432.938 221.864 432.93 222.144 432.914 222.448C432.898 222.736 432.882 223.016 432.866 223.288C432.85 223.544 432.834 223.752 432.818 223.912L439.706 213.136H442.298V226H440.33V218.416C440.33 218.16 440.33 217.824 440.33 217.408C440.346 216.992 440.362 216.584 440.378 216.184C440.394 215.768 440.41 215.456 440.426 215.248L433.586 226H430.97V213.136H432.962V220.984ZM454.072 212.944C455.352 213.056 456.464 213.392 457.408 213.952C458.368 214.512 459.112 215.264 459.64 216.208C460.168 217.152 460.432 218.272 460.432 219.568C460.432 220.864 460.176 221.992 459.664 222.952C459.152 223.896 458.424 224.648 457.48 225.208C456.536 225.752 455.4 226.08 454.072 226.192V231.76H452.008V226.192C450.744 226.08 449.632 225.752 448.672 225.208C447.712 224.648 446.968 223.896 446.44 222.952C445.912 221.992 445.648 220.864 445.648 219.568C445.648 218.256 445.904 217.128 446.416 216.184C446.928 215.224 447.664 214.472 448.624 213.928C449.584 213.368 450.736 213.04 452.08 212.944V207.76H454.072V212.944ZM452.08 214.696C451.104 214.792 450.304 215.04 449.68 215.44C449.056 215.84 448.592 216.384 448.288 217.072C448 217.76 447.856 218.592 447.856 219.568C447.856 220.528 448 221.36 448.288 222.064C448.592 222.752 449.056 223.304 449.68 223.72C450.304 224.12 451.104 224.368 452.08 224.464V214.696ZM454.072 224.464C455.032 224.352 455.816 224.096 456.424 223.696C457.048 223.296 457.504 222.752 457.792 222.064C458.096 221.36 458.248 220.528 458.248 219.568C458.248 218.608 458.096 217.784 457.792 217.096C457.488 216.408 457.024 215.864 456.4 215.464C455.792 215.064 455.016 214.816 454.072 214.72V224.464ZM468.75 212.896C469.854 212.896 470.798 213.136 471.582 213.616C472.382 214.096 472.99 214.776 473.406 215.656C473.838 216.52 474.054 217.536 474.054 218.704V219.976H465.246C465.278 221.432 465.646 222.544 466.35 223.312C467.07 224.064 468.07 224.44 469.35 224.44C470.166 224.44 470.886 224.368 471.51 224.224C472.15 224.064 472.806 223.84 473.478 223.552V225.4C472.822 225.688 472.174 225.896 471.534 226.024C470.894 226.168 470.134 226.24 469.254 226.24C468.038 226.24 466.958 225.992 466.014 225.496C465.086 225 464.358 224.264 463.83 223.288C463.318 222.296 463.062 221.088 463.062 219.664C463.062 218.256 463.294 217.048 463.758 216.04C464.238 215.032 464.902 214.256 465.75 213.712C466.614 213.168 467.614 212.896 468.75 212.896ZM468.726 214.624C467.718 214.624 466.918 214.952 466.326 215.608C465.75 216.248 465.406 217.144 465.294 218.296H471.846C471.846 217.56 471.734 216.92 471.51 216.376C471.286 215.832 470.942 215.408 470.478 215.104C470.03 214.784 469.446 214.624 468.726 214.624ZM483.449 212.896C485.033 212.896 486.305 213.448 487.265 214.552C488.241 215.656 488.729 217.32 488.729 219.544C488.729 221 488.505 222.232 488.057 223.24C487.625 224.232 487.009 224.984 486.209 225.496C485.425 225.992 484.497 226.24 483.425 226.24C482.769 226.24 482.185 226.152 481.673 225.976C481.161 225.8 480.721 225.576 480.353 225.304C480.001 225.016 479.697 224.704 479.441 224.368H479.297C479.329 224.64 479.361 224.984 479.393 225.4C479.425 225.816 479.441 226.176 479.441 226.48V231.76H477.329V213.136H479.057L479.345 214.888H479.441C479.697 214.52 480.001 214.184 480.353 213.88C480.721 213.576 481.153 213.336 481.649 213.16C482.161 212.984 482.761 212.896 483.449 212.896ZM483.065 214.672C482.201 214.672 481.505 214.84 480.977 215.176C480.449 215.496 480.065 215.984 479.825 216.64C479.585 217.296 479.457 218.128 479.441 219.136V219.544C479.441 220.6 479.553 221.496 479.777 222.232C480.001 222.968 480.377 223.528 480.905 223.912C481.449 224.296 482.185 224.488 483.113 224.488C483.897 224.488 484.537 224.272 485.033 223.84C485.545 223.408 485.921 222.824 486.161 222.088C486.417 221.336 486.545 220.48 486.545 219.52C486.545 218.048 486.257 216.872 485.681 215.992C485.121 215.112 484.249 214.672 483.065 214.672ZM499.703 213.136H502.007L496.511 219.328L502.463 226H500.015L494.207 219.472V226H492.095V213.136H494.207V219.376L499.703 213.136ZM506.79 220.984C506.79 221.128 506.782 221.336 506.766 221.608C506.766 221.864 506.758 222.144 506.742 222.448C506.726 222.736 506.71 223.016 506.694 223.288C506.678 223.544 506.662 223.752 506.646 223.912L513.534 213.136H516.126V226H514.158V218.416C514.158 218.16 514.158 217.824 514.158 217.408C514.174 216.992 514.19 216.584 514.206 216.184C514.222 215.768 514.238 215.456 514.254 215.248L507.414 226H504.798V213.136H506.79V220.984Z" fill="black"/>
<defs>
<filter id="filter0_ii_1_839" x="203.287" y="282.513" width="25.899" height="22.703" filterUnits="userSpaceOnUse" color-interpolation-filters="sRGB">
<feFlood flood-opacity="0" result="BackgroundImageFix"/>
<feBlend mode="normal" in="SourceGraphic" in2="BackgroundImageFix" result="shape"/>
<feColorMatrix in="SourceAlpha" type="matrix" values="0 0 0 0 0 0 0 0 0 0 0 0 0 0 0 0 0 0 127 0" result="hardAlpha"/>
<feOffset/>
<feGaussianBlur stdDeviation="2.19449"/>
<feComposite in2="hardAlpha" operator="arithmetic" k2="-1" k3="1"/>
<feColorMatrix type="matrix" values="0 0 0 0 0 0 0 0 0 0 0 0 0 0 0 0 0 0 0.25 0"/>
<feBlend mode="normal" in2="shape" result="effect1_innerShadow_1_839"/>
<feColorMatrix in="SourceAlpha" type="matrix" values="0 0 0 0 0 0 0 0 0 0 0 0 0 0 0 0 0 0 127 0" result="hardAlpha"/>
<feOffset/>
<feGaussianBlur stdDeviation="1.09725"/>
<feComposite in2="hardAlpha" operator="arithmetic" k2="-1" k3="1"/>
<feColorMatrix type="matrix" values="0 0 0 0 1 0 0 0 0 1 0 0 0 0 1 0 0 0 1 0"/>
<feBlend mode="normal" in2="effect1_innerShadow_1_839" result="effect2_innerShadow_1_839"/>
</filter>
<filter id="filter1_ii_1_839" x="228.121" y="278.283" width="25.4393" height="21.3786" filterUnits="userSpaceOnUse" color-interpolation-filters="sRGB">
<feFlood flood-opacity="0" result="BackgroundImageFix"/>
<feBlend mode="normal" in="SourceGraphic" in2="BackgroundImageFix" result="shape"/>
<feColorMatrix in="SourceAlpha" type="matrix" values="0 0 0 0 0 0 0 0 0 0 0 0 0 0 0 0 0 0 127 0" result="hardAlpha"/>
<feOffset/>
<feGaussianBlur stdDeviation="2.19449"/>
<feComposite in2="hardAlpha" operator="arithmetic" k2="-1" k3="1"/>
<feColorMatrix type="matrix" values="0 0 0 0 0 0 0 0 0 0 0 0 0 0 0 0 0 0 0.25 0"/>
<feBlend mode="normal" in2="shape" result="effect1_innerShadow_1_839"/>
<feColorMatrix in="SourceAlpha" type="matrix" values="0 0 0 0 0 0 0 0 0 0 0 0 0 0 0 0 0 0 127 0" result="hardAlpha"/>
<feOffset/>
<feGaussianBlur stdDeviation="1.09725"/>
<feComposite in2="hardAlpha" operator="arithmetic" k2="-1" k3="1"/>
<feColorMatrix type="matrix" values="0 0 0 0 1 0 0 0 0 1 0 0 0 0 1 0 0 0 1 0"/>
<feBlend mode="normal" in2="effect1_innerShadow_1_839" result="effect2_innerShadow_1_839"/>
</filter>
<filter id="filter2_ii_1_839" x="251.179" y="274.423" width="21.6419" height="19.4628" filterUnits="userSpaceOnUse" color-interpolation-filters="sRGB">
<feFlood flood-opacity="0" result="BackgroundImageFix"/>
<feBlend mode="normal" in="SourceGraphic" in2="BackgroundImageFix" result="shape"/>
<feColorMatrix in="SourceAlpha" type="matrix" values="0 0 0 0 0 0 0 0 0 0 0 0 0 0 0 0 0 0 127 0" result="hardAlpha"/>
<feOffset/>
<feGaussianBlur stdDeviation="2.19449"/>
<feComposite in2="hardAlpha" operator="arithmetic" k2="-1" k3="1"/>
<feColorMatrix type="matrix" values="0 0 0 0 0 0 0 0 0 0 0 0 0 0 0 0 0 0 0.25 0"/>
<feBlend mode="normal" in2="shape" result="effect1_innerShadow_1_839"/>
<feColorMatrix in="SourceAlpha" type="matrix" values="0 0 0 0 0 0 0 0 0 0 0 0 0 0 0 0 0 0 127 0" result="hardAlpha"/>
<feOffset/>
<feGaussianBlur stdDeviation="1.09725"/>
<feComposite in2="hardAlpha" operator="arithmetic" k2="-1" k3="1"/>
<feColorMatrix type="matrix" values="0 0 0 0 1 0 0 0 0 1 0 0 0 0 1 0 0 0 1 0"/>
<feBlend mode="normal" in2="effect1_innerShadow_1_839" result="effect2_innerShadow_1_839"/>
</filter>
<filter id="filter3_ii_1_839" x="268.173" y="266.571" width="17.0324" height="18.314" filterUnits="userSpaceOnUse" color-interpolation-filters="sRGB">
<feFlood flood-opacity="0" result="BackgroundImageFix"/>
<feBlend mode="normal" in="SourceGraphic" in2="BackgroundImageFix" result="shape"/>
<feColorMatrix in="SourceAlpha" type="matrix" values="0 0 0 0 0 0 0 0 0 0 0 0 0 0 0 0 0 0 127 0" result="hardAlpha"/>
<feOffset/>
<feGaussianBlur stdDeviation="2.19449"/>
<feComposite in2="hardAlpha" operator="arithmetic" k2="-1" k3="1"/>
<feColorMatrix type="matrix" values="0 0 0 0 0 0 0 0 0 0 0 0 0 0 0 0 0 0 0.25 0"/>
<feBlend mode="normal" in2="shape" result="effect1_innerShadow_1_839"/>
<feColorMatrix in="SourceAlpha" type="matrix" values="0 0 0 0 0 0 0 0 0 0 0 0 0 0 0 0 0 0 127 0" result="hardAlpha"/>
<feOffset/>
<feGaussianBlur stdDeviation="1.09725"/>
<feComposite in2="hardAlpha" operator="arithmetic" k2="-1" k3="1"/>
<feColorMatrix type="matrix" values="0 0 0 0 1 0 0 0 0 1 0 0 0 0 1 0 0 0 1 0"/>
<feBlend mode="normal" in2="effect1_innerShadow_1_839" result="effect2_innerShadow_1_839"/>
</filter>
<filter id="filter4_ii_1_839" x="278.843" y="254.055" width="14.526" height="16.2864" filterUnits="userSpaceOnUse" color-interpolation-filters="sRGB">
<feFlood flood-opacity="0" result="BackgroundImageFix"/>
<feBlend mode="normal" in="SourceGraphic" in2="BackgroundImageFix" result="shape"/>
<feColorMatrix in="SourceAlpha" type="matrix" values="0 0 0 0 0 0 0 0 0 0 0 0 0 0 0 0 0 0 127 0" result="hardAlpha"/>
<feOffset/>
<feGaussianBlur stdDeviation="2.19449"/>
<feComposite in2="hardAlpha" operator="arithmetic" k2="-1" k3="1"/>
<feColorMatrix type="matrix" values="0 0 0 0 0 0 0 0 0 0 0 0 0 0 0 0 0 0 0.25 0"/>
<feBlend mode="normal" in2="shape" result="effect1_innerShadow_1_839"/>
<feColorMatrix in="SourceAlpha" type="matrix" values="0 0 0 0 0 0 0 0 0 0 0 0 0 0 0 0 0 0 127 0" result="hardAlpha"/>
<feOffset/>
<feGaussianBlur stdDeviation="1.09725"/>
<feComposite in2="hardAlpha" operator="arithmetic" k2="-1" k3="1"/>
<feColorMatrix type="matrix" values="0 0 0 0 1 0 0 0 0 1 0 0 0 0 1 0 0 0 1 0"/>
<feBlend mode="normal" in2="effect1_innerShadow_1_839" result="effect2_innerShadow_1_839"/>
</filter>
<filter id="filter5_ii_1_839" x="286.694" y="240.76" width="12.4171" height="14.2995" filterUnits="userSpaceOnUse" color-interpolation-filters="sRGB">
<feFlood flood-opacity="0" result="BackgroundImageFix"/>
<feBlend mode="normal" in="SourceGraphic" in2="BackgroundImageFix" result="shape"/>
<feColorMatrix in="SourceAlpha" type="matrix" values="0 0 0 0 0 0 0 0 0 0 0 0 0 0 0 0 0 0 127 0" result="hardAlpha"/>
<feOffset/>
<feGaussianBlur stdDeviation="2.19449"/>
<feComposite in2="hardAlpha" operator="arithmetic" k2="-1" k3="1"/>
<feColorMatrix type="matrix" values="0 0 0 0 0 0 0 0 0 0 0 0 0 0 0 0 0 0 0.25 0"/>
<feBlend mode="normal" in2="shape" result="effect1_innerShadow_1_839"/>
<feColorMatrix in="SourceAlpha" type="matrix" values="0 0 0 0 0 0 0 0 0 0 0 0 0 0 0 0 0 0 127 0" result="hardAlpha"/>
<feOffset/>
<feGaussianBlur stdDeviation="1.09725"/>
<feComposite in2="hardAlpha" operator="arithmetic" k2="-1" k3="1"/>
<feColorMatrix type="matrix" values="0 0 0 0 1 0 0 0 0 1 0 0 0 0 1 0 0 0 1 0"/>
<feBlend mode="normal" in2="effect1_innerShadow_1_839" result="effect2_innerShadow_1_839"/>
</filter>
<filter id="filter6_ii_1_839" x="203.287" y="282.513" width="25.899" height="22.703" filterUnits="userSpaceOnUse" color-interpolation-filters="sRGB">
<feFlood flood-opacity="0" result="BackgroundImageFix"/>
<feBlend mode="normal" in="SourceGraphic" in2="BackgroundImageFix" result="shape"/>
<feColorMatrix in="SourceAlpha" type="matrix" values="0 0 0 0 0 0 0 0 0 0 0 0 0 0 0 0 0 0 127 0" result="hardAlpha"/>
<feOffset/>
<feGaussianBlur stdDeviation="2.19449"/>
<feComposite in2="hardAlpha" operator="arithmetic" k2="-1" k3="1"/>
<feColorMatrix type="matrix" values="0 0 0 0 0 0 0 0 0 0 0 0 0 0 0 0 0 0 0.25 0"/>
<feBlend mode="normal" in2="shape" result="effect1_innerShadow_1_839"/>
<feColorMatrix in="SourceAlpha" type="matrix" values="0 0 0 0 0 0 0 0 0 0 0 0 0 0 0 0 0 0 127 0" result="hardAlpha"/>
<feOffset/>
<feGaussianBlur stdDeviation="1.09725"/>
<feComposite in2="hardAlpha" operator="arithmetic" k2="-1" k3="1"/>
<feColorMatrix type="matrix" values="0 0 0 0 1 0 0 0 0 1 0 0 0 0 1 0 0 0 1 0"/>
<feBlend mode="normal" in2="effect1_innerShadow_1_839" result="effect2_innerShadow_1_839"/>
</filter>
<filter id="filter7_ii_1_839" x="228.121" y="278.283" width="25.4393" height="21.3786" filterUnits="userSpaceOnUse" color-interpolation-filters="sRGB">
<feFlood flood-opacity="0" result="BackgroundImageFix"/>
<feBlend mode="normal" in="SourceGraphic" in2="BackgroundImageFix" result="shape"/>
<feColorMatrix in="SourceAlpha" type="matrix" values="0 0 0 0 0 0 0 0 0 0 0 0 0 0 0 0 0 0 127 0" result="hardAlpha"/>
<feOffset/>
<feGaussianBlur stdDeviation="2.19449"/>
<feComposite in2="hardAlpha" operator="arithmetic" k2="-1" k3="1"/>
<feColorMatrix type="matrix" values="0 0 0 0 0 0 0 0 0 0 0 0 0 0 0 0 0 0 0.25 0"/>
<feBlend mode="normal" in2="shape" result="effect1_innerShadow_1_839"/>
<feColorMatrix in="SourceAlpha" type="matrix" values="0 0 0 0 0 0 0 0 0 0 0 0 0 0 0 0 0 0 127 0" result="hardAlpha"/>
<feOffset/>
<feGaussianBlur stdDeviation="1.09725"/>
<feComposite in2="hardAlpha" operator="arithmetic" k2="-1" k3="1"/>
<feColorMatrix type="matrix" values="0 0 0 0 1 0 0 0 0 1 0 0 0 0 1 0 0 0 1 0"/>
<feBlend mode="normal" in2="effect1_innerShadow_1_839" result="effect2_innerShadow_1_839"/>
</filter>
<filter id="filter8_ii_1_839" x="251.179" y="274.423" width="21.6419" height="19.4628" filterUnits="userSpaceOnUse" color-interpolation-filters="sRGB">
<feFlood flood-opacity="0" result="BackgroundImageFix"/>
<feBlend mode="normal" in="SourceGraphic" in2="BackgroundImageFix" result="shape"/>
<feColorMatrix in="SourceAlpha" type="matrix" values="0 0 0 0 0 0 0 0 0 0 0 0 0 0 0 0 0 0 127 0" result="hardAlpha"/>
<feOffset/>
<feGaussianBlur stdDeviation="2.19449"/>
<feComposite in2="hardAlpha" operator="arithmetic" k2="-1" k3="1"/>
<feColorMatrix type="matrix" values="0 0 0 0 0 0 0 0 0 0 0 0 0 0 0 0 0 0 0.25 0"/>
<feBlend mode="normal" in2="shape" result="effect1_innerShadow_1_839"/>
<feColorMatrix in="SourceAlpha" type="matrix" values="0 0 0 0 0 0 0 0 0 0 0 0 0 0 0 0 0 0 127 0" result="hardAlpha"/>
<feOffset/>
<feGaussianBlur stdDeviation="1.09725"/>
<feComposite in2="hardAlpha" operator="arithmetic" k2="-1" k3="1"/>
<feColorMatrix type="matrix" values="0 0 0 0 1 0 0 0 0 1 0 0 0 0 1 0 0 0 1 0"/>
<feBlend mode="normal" in2="effect1_innerShadow_1_839" result="effect2_innerShadow_1_839"/>
</filter>
<clipPath id="clip0_1_839">
<rect width="42" height="42" fill="white" transform="translate(295 445)"/>
</clipPath>
<clipPath id="clip1_1_839">
<rect width="42" height="42" fill="white" transform="translate(329 445)"/>
</clipPath>
<clipPath id="clip2_1_839">
<rect width="42" height="42" fill="white" transform="translate(261 445)"/>
</clipPath>
</defs>
</svg>
