<svg width="856" height="758" viewBox="0 0 856 758" fill="none" xmlns="http://www.w3.org/2000/svg">
<circle cx="401.576" cy="379" r="378.274" fill="#605DE3" fill-opacity="0.1"/>
<circle cx="401.576" cy="379" r="342.248" fill="#605DE3" fill-opacity="0.1"/>
<circle cx="401.576" cy="379" r="306.222" fill="#605DE3" fill-opacity="0.1"/>
<circle cx="401.576" cy="379" r="270.196" fill="#605DE3" fill-opacity="0.1"/>
<circle cx="401.576" cy="379" r="234.17" fill="#605DE3" fill-opacity="0.1"/>
<circle cx="401.576" cy="379" r="198.144" fill="#605DE3" fill-opacity="0.1"/>
<circle cx="401.576" cy="379" r="162.117" fill="#605DE3" fill-opacity="0.1"/>
<circle cx="401.576" cy="379" r="126.091" fill="#605DE3" fill-opacity="0.1"/>
<circle cx="401.576" cy="379" r="90.0653" fill="#605DE3" fill-opacity="0.1"/>
<circle cx="401.576" cy="379" r="54.0391" fill="#605DE3" fill-opacity="0.1"/>
<circle cx="401.576" cy="379" r="18.0131" fill="#605DE3" fill-opacity="0.1"/>
<path d="M216.87 363.855C249.398 388.784 327.843 442.917 381.406 460.012C448.36 481.38 563.748 520.555 564.461 496.338C565.173 472.121 449.58 510.287 477.274 460.012C504.968 409.737 388.423 428.2 388.423 428.2C388.423 428.2 456.504 393.582 487.659 410.891C518.815 428.2 478.428 469.74 506.122 468.586C533.816 467.433 600.743 498.588 633.052 428.2C665.362 357.811 629.591 263.19 462.273 192.801C328.419 136.49 238.029 137.029 209.566 144.337C219.12 127.797 266.863 102.796 381.406 135.105C524.585 175.492 519.969 204.34 537.278 192.801C554.54 181.293 395.047 110.101 323.224 106.287C322.845 106.267 322.65 106.258 322.65 106.258C322.841 106.267 323.032 106.277 323.224 106.287C332.873 106.79 461.396 114.024 506.122 144.337C541.472 168.295 521.623 141.632 512.8 135.105C499.761 125.459 466.464 114.744 453.454 109.952C453.215 109.869 452.984 109.783 452.762 109.696C452.986 109.779 453.217 109.865 453.454 109.952C476.724 118.084 584.172 110.049 563.585 144.337C543.396 185.32 593.067 175.223 597.936 192.801C614.27 251.766 666.904 190.653 708.339 281.998C749.774 373.343 737.269 410.891 768.089 410.891C798.909 410.891 746.936 287.228 727.638 254.482C708.339 221.736 869.217 388.357 782.536 479.854C722.562 543.159 794.428 509.295 832.562 469.644C849.544 451.986 839.592 430.769 839.808 421.725C840.023 412.681 882.82 499.689 826.429 499.689C770.038 499.689 745.656 559.831 672.739 562.682C500.34 569.424 406.609 592.316 287.937 488.176C316.755 502.303 375.793 524.988 381.406 502.707C388.423 474.856 224.175 434.493 216.87 363.855Z" fill="#85E2FF"/>
<path d="M423.625 419.609C425.047 419.136 426.494 418.67 427.959 418.215C438.207 415.035 449.21 412.451 459.416 411.682C469.716 410.905 478.578 412.027 485.035 415.615C491.329 419.112 493.689 423.504 494.46 428.239C495.302 433.409 494.291 439.255 492.912 445.496C492.758 446.194 492.597 446.906 492.436 447.622C491.913 449.936 491.378 452.306 491.001 454.476C490.511 457.294 490.161 460.4 490.59 463.287C491.048 466.37 492.463 469.539 495.681 471.66C498.65 473.618 502.379 474.151 506.347 473.986C511.669 473.764 518.72 474.883 527.562 476.286C529.077 476.527 530.644 476.776 532.265 477.027C542.98 478.693 555.413 480.359 568.113 479.754C580.865 479.147 594.093 476.245 606.337 468.632C618.615 460.998 629.511 448.868 637.964 430.454C654.902 393.553 653.857 350.379 627.104 307.633C600.479 265.093 548.602 223.256 464.369 187.82C397.038 159.495 340.525 145.419 297.146 139.36C267.332 135.195 243.577 134.798 226.722 136.23C233.62 132.412 243.458 128.845 256.948 126.742C283.404 122.618 323.161 124.291 379.939 140.306C451.158 160.395 485.382 177.544 503.859 188.116C507.226 190.042 510.054 191.74 512.557 193.243C513.531 193.828 514.456 194.384 515.344 194.911C518.408 196.731 521.178 198.312 523.73 199.344C526.388 200.418 529.156 201.046 532.184 200.65C535.143 200.263 537.763 198.972 540.275 197.297C541.486 196.49 542.653 195.315 543.354 193.679C544.063 192.024 544.101 190.348 543.801 188.886C543.256 186.236 541.543 183.975 539.934 182.25C536.558 178.63 530.932 174.576 524.035 170.355C510.063 161.804 489.225 151.587 465.76 141.68C448.685 134.471 430.037 127.35 411.444 121.119C427.461 123.696 443.756 126.912 458.635 130.894C476.955 135.798 492.669 141.747 503.09 148.81C511.86 154.754 517.968 158.119 521.968 159.152C523.031 159.426 524.325 159.643 525.678 159.501C527.106 159.351 528.947 158.743 530.307 157.052C531.611 155.431 531.816 153.62 531.768 152.422C531.72 151.225 531.409 150.136 531.099 149.291C529.931 146.107 527.192 142.304 524.592 139.2C521.903 135.99 518.697 132.746 516.014 130.761C511.151 127.163 503.971 123.565 496.269 120.233C505.624 120.877 515.271 121.605 524.316 122.701C537.944 124.351 549.193 126.741 555.708 130.365C558.906 132.144 560.174 133.791 560.585 135.038C560.944 136.126 561.032 138.091 558.952 141.555L558.837 141.747L558.738 141.949C553.426 152.732 552.03 161.47 554.686 168.611C557.347 175.766 563.483 179.688 569.119 182.262C571.991 183.573 575.024 184.661 577.804 185.643C578.023 185.721 578.241 185.798 578.457 185.874C581.059 186.792 583.407 187.621 585.537 188.539C590.417 190.642 592.23 192.445 592.728 194.244C597.113 210.073 604.26 218.754 613.809 223.589C618.385 225.907 623.256 227.207 628.081 228.154C630.867 228.7 633.949 229.177 636.988 229.648C638.978 229.957 640.949 230.262 642.807 230.582C652.663 232.28 662.685 234.86 672.72 242.182C682.785 249.525 693.328 261.986 703.418 284.23C720.79 322.528 728.551 351.167 734.138 371.78C735.147 375.503 736.085 378.965 736.996 382.174C739.911 392.445 742.758 401 747.296 406.893C749.673 409.981 752.557 412.414 756.162 414.03C759.723 415.626 763.696 416.295 768.089 416.295C770.959 416.295 773.68 415.559 776.021 413.924C778.33 412.31 779.905 410.076 780.951 407.659C782.963 403.007 783.313 396.995 782.875 390.683C781.987 377.877 777.596 360.868 771.789 343.273C764.415 320.928 754.507 296.905 745.721 278.029C755.058 289.903 765.897 305.517 775.621 323.183C788.921 347.344 799.936 374.983 802.432 401.932C804.913 428.725 798.984 454.634 778.613 476.137C771.032 484.139 765.427 490.716 761.542 496.025C757.783 501.161 755.212 505.658 754.406 509.403C753.991 511.329 753.88 513.799 755.136 516.107C756.452 518.526 758.668 519.691 760.672 520.149C759.216 521.154 757.763 522.163 756.311 523.172C755.11 524.007 753.909 524.841 752.708 525.671C730.564 540.984 707.338 555.921 672.528 557.283C648.492 558.223 626.073 559.467 604.959 560.638C549.852 563.696 503.637 566.261 460.77 561.637C412.258 556.405 368.285 541.94 321.465 508.105C328.383 510.541 335.399 512.711 342.092 514.345C351.814 516.717 361.369 518.089 369.108 517.191C376.902 516.287 384.447 512.757 386.646 504.027C388.25 497.661 384.652 492.081 380.507 487.857C376.181 483.448 369.832 479.026 362.486 474.574C353.225 468.961 341.606 462.857 329.203 456.342C321.995 452.555 314.523 448.63 307.095 444.581C286.604 433.412 266.04 421.102 250.188 407.352C239.203 397.823 230.85 387.919 226.192 377.565C242.57 389.537 264.69 404.798 288.407 419.467C318.86 438.303 352.324 456.403 379.763 465.16C384.923 466.807 390.38 468.562 396.059 470.389C427.096 480.375 464.737 492.486 496.449 500.508C515.152 505.24 532.171 508.651 544.702 509.281C550.885 509.591 556.582 509.266 560.964 507.692C563.211 506.885 565.418 505.642 567.105 503.697C568.868 501.665 569.783 499.185 569.862 496.497C569.941 493.828 569.193 491.34 567.611 489.24C566.099 487.232 564.059 485.888 562.007 484.961C558.022 483.161 552.841 482.435 547.565 482.121C540.677 481.711 532.2 481.972 523.762 482.232C519.318 482.368 514.885 482.505 510.7 482.543C504.444 482.6 498.586 482.451 493.517 481.848C488.367 481.234 484.501 480.199 481.948 478.774C479.606 477.466 478.689 476.051 478.455 474.299C478.169 472.154 478.778 468.482 482.007 462.619C485.783 455.765 487.497 449.384 486.77 443.543C486.02 437.524 482.784 432.9 478.342 429.528C469.923 423.135 456.489 420.699 443.584 419.86C436.952 419.429 430.123 419.405 423.625 419.609ZM826.429 494.285C821.02 494.285 815.887 494.806 810.978 495.748C819.915 489.004 828.821 481.33 836.457 473.39C843.379 466.192 846.406 458.428 847.454 451.094C848.06 453.444 848.595 455.849 849.026 458.264C850.799 468.209 850.638 477.405 847.484 483.864C845.968 486.966 843.752 489.471 840.567 491.25C837.333 493.057 832.795 494.285 826.429 494.285ZM537.278 192.801C550.902 183.718 454.416 137.454 377.833 116.485L215.247 137.641C232.579 122.291 281.669 106.972 381.406 135.105C465.945 158.952 498.96 178.775 515.384 188.638C526.777 195.479 530.189 197.527 537.278 192.801Z" stroke="#BEFF8A" stroke-opacity="0.8" stroke-width="10.8078"/>
<path d="M265.914 270.707C373.119 262.014 475.978 318.997 514.007 348.575C488.044 318.15 419.054 254.809 350.792 244.843C265.464 232.387 387.539 201.868 265.914 196.886C144.289 191.903 69.274 257.3 65.537 252.317C61.8001 247.335 81.1077 234.878 115.986 209.342C143.889 188.913 223.112 174.256 259.236 169.481C218.545 169.274 129.564 172.72 99.1697 188.166C61.1772 207.474 47.6345 203.773 47.6345 180.209C47.6345 161.358 73.7299 139.282 86.7776 130.601C67.5289 133.908 24.3186 150.692 5.46753 191.371C-18.0964 242.219 51.3552 172.768 5.46753 320.352C-40.4201 467.937 281.388 590.753 281.388 601.522C281.388 610.138 151.648 556.647 86.7776 528.825C118.337 552.216 197.942 604.123 263.883 624.618C346.31 650.237 459.925 651.351 505.594 630.187C551.263 609.024 565.743 655.807 639.259 651.351C698.071 647.787 715.158 602.937 716.35 580.958C716.35 580.958 571.956 661.498 361.892 565.882C99.3117 446.363 131.908 281.572 265.914 270.707Z" fill="#85E2FF"/>
<path d="M10.3706 193.643C21.8122 168.953 42.9042 153.463 61.3862 144.708C60.3457 145.769 59.3198 146.852 58.3165 147.954C50.0465 157.041 42.2305 168.603 42.2305 180.209C42.2305 186.484 43.1086 192.205 45.6186 196.73C48.2997 201.563 52.5968 204.58 58.2021 205.584C63.4851 206.53 69.6945 205.659 76.6538 203.554C83.6905 201.426 91.9757 197.884 101.618 192.984C108.51 189.481 119.151 186.48 132.279 184.012C145.298 181.564 160.354 179.711 175.82 178.336C179.448 178.014 183.095 177.718 186.739 177.447C185.572 177.726 184.406 178.008 183.242 178.293C169.224 181.728 155.376 185.677 143.218 190.087C131.14 194.467 120.388 199.422 112.794 204.982C107.151 209.113 101.884 212.925 97.0401 216.43C87.0501 223.658 78.865 229.581 72.9188 234.306C68.5402 237.786 64.9699 240.925 62.7328 243.698C61.6286 245.066 60.5162 246.743 59.9907 248.655C59.3968 250.815 59.5611 253.356 61.2139 255.56C62.5402 257.328 64.3929 257.857 65.62 257.965C66.761 258.066 67.7711 257.862 68.4275 257.691C69.773 257.341 71.2409 256.687 72.6164 256.011C75.1323 254.773 78.4991 252.866 82.4761 250.613C82.9683 250.334 83.4699 250.049 83.9804 249.761C93.3989 244.431 106.735 236.989 123.689 229.55C157.588 214.677 205.919 199.836 265.693 202.285C280.79 202.904 291.957 203.913 300.139 205.204C308.415 206.509 313.24 208.045 315.93 209.49C317.232 210.189 317.829 210.761 318.09 211.086C318.307 211.357 318.342 211.514 318.359 211.646C318.429 212.197 318.233 213.318 317.081 215.747C316.849 216.237 316.553 216.822 316.226 217.471C315.299 219.307 314.115 221.65 313.394 223.762C312.315 226.919 311.643 231.089 313.848 235.301C315.948 239.313 320.063 242.191 325.619 244.425C331.259 246.692 339.166 248.607 350.011 250.191C382.906 254.993 416.388 272.761 445.105 293.423C455.51 300.909 465.225 308.729 473.988 316.365C423.209 288.346 345.669 258.818 265.477 265.32C230.925 268.122 202.413 280.892 183.523 300.894C164.561 320.97 155.653 347.975 159.83 378.287C168.138 438.58 227.808 510.789 359.653 570.801C465.687 619.065 555.332 622.936 618.598 614.634C650.209 610.486 675.202 603.303 692.337 597.133C699.463 594.567 705.231 592.175 709.555 590.248C707.503 599.247 703.105 610.002 695.228 619.641C684.415 632.872 666.842 644.266 638.932 645.957C604.426 648.048 583.626 638.496 565.558 630.198C565.116 629.995 564.676 629.793 564.237 629.592C555.068 625.387 546.009 621.319 536.21 619.848C526.162 618.34 515.629 619.581 503.322 625.284C481.646 635.329 442.854 640.375 398.625 639.543C354.611 638.715 306.121 632.087 265.487 619.458C222.232 606.013 172.803 578.754 135.296 555.149C158.722 564.871 183.84 575.077 206.45 583.874C226.743 591.769 245.111 598.565 258.448 602.855C265.076 604.987 270.663 606.566 274.686 607.324C276.615 607.687 278.622 607.951 280.332 607.819C281.138 607.757 282.505 607.569 283.824 606.767C285.485 605.755 286.792 603.897 286.792 601.522C286.792 599.75 286.012 598.455 285.595 597.855C285.118 597.167 284.563 596.608 284.103 596.19C283.174 595.345 281.988 594.499 280.734 593.682C278.183 592.022 274.576 589.987 270.207 587.641C264.912 584.798 258.232 581.357 250.537 577.394C245.527 574.813 240.086 572.01 234.318 569.007C204.916 553.699 166.343 532.839 129.246 507.766C92.0869 482.651 56.7592 453.54 33.5835 421.844C10.4567 390.214 -0.156337 356.641 10.6278 321.957C22.1456 284.913 26.5896 261.004 26.9155 245.199C27.244 229.266 23.3826 220.649 17.3558 215.483C14.668 213.179 11.8033 211.815 9.77294 210.848C9.69346 210.81 9.61525 210.772 9.53838 210.736C7.16438 209.603 6.45974 209.153 6.11298 208.741C6.04359 208.659 5.97643 208.564 5.91962 208.313C5.85015 208.007 5.77778 207.364 5.9382 206.192C6.27264 203.749 7.48945 199.86 10.3706 193.643ZM65.7064 247.231C65.6692 247.241 65.6734 247.238 65.7137 247.229C65.7113 247.23 65.7088 247.231 65.7064 247.231ZM276.902 604.253C276.9 604.252 276.898 604.249 276.894 604.245C276.903 604.254 276.905 604.256 276.902 604.253ZM279.499 597.043C279.492 597.044 279.485 597.044 279.477 597.045C279.529 597.038 279.54 597.04 279.499 597.043Z" stroke="#BEFF8A" stroke-opacity="0.8" stroke-width="10.8078"/>
<path d="M291.268 321.8C271.725 341.343 234.946 317.728 218.999 303.478C227.482 315.692 251.775 348.061 281.09 379.818C317.733 419.515 330.965 356.407 354.376 321.8C373.105 294.114 392.037 327.228 399.162 347.246C404.252 332.657 404.659 301.442 365.573 293.299C316.715 283.121 315.697 297.371 291.268 321.8Z" fill="#85E2FF"/>
<path d="M285.06 376.153C268.782 358.518 254.061 340.69 242.782 326.292C245.741 327.799 248.778 329.175 251.845 330.355C266.026 335.809 282.956 337.755 295.089 325.621C299.321 321.39 302.967 317.345 306.153 313.811C307.619 312.186 308.986 310.669 310.269 309.291C314.48 304.768 317.966 301.52 321.927 299.271C329.541 294.95 340.317 293.558 364.471 298.59C382.455 302.336 390.495 311.084 393.898 319.817C394.818 322.178 395.423 324.601 395.776 327.008C392.634 321.592 388.929 316.471 384.777 312.655C380.251 308.495 374.427 305.199 367.707 305.906C360.944 306.619 355.024 311.198 349.9 318.772C343.941 327.581 338.662 338.091 333.694 347.983L333.373 348.622C328.216 358.888 323.413 368.371 318.298 375.532C313.068 382.854 308.411 386.438 304.014 387.007C299.875 387.543 293.803 385.624 285.06 376.153Z" stroke="#BEFF8A" stroke-opacity="0.8" stroke-width="10.8078"/>
<path d="M581.628 363.937C610.286 316.736 546.508 274.03 511.037 258.577C536.397 264.413 588.657 283.781 594.815 314.569C602.512 353.053 622.996 324.628 622.996 363.937C622.996 407.713 588.816 448.465 591.015 421.526C593.214 394.587 589.867 387.139 532.69 408.03C486.949 424.743 538.555 371.745 570.075 343.157C561.985 369.751 552.97 411.139 581.628 363.937Z" fill="#85E2FF"/>
<path d="M586.248 366.742C594.137 353.748 595.765 340.789 592.943 328.523C592.676 327.362 592.37 326.21 592.027 325.068C593.778 330.076 595.924 333.779 598.435 336.59C602.095 340.687 606.179 342.426 609.069 343.657C609.271 343.742 609.466 343.826 609.656 343.907C612.573 345.163 613.922 345.932 615.019 347.794C616.311 349.987 617.592 354.387 617.592 363.937C617.592 384.575 609.473 404.675 601.697 416.233C599.773 419.094 597.955 421.3 596.402 422.81C596.382 422.829 596.362 422.848 596.342 422.867C596.356 422.589 596.375 422.288 596.401 421.966C596.945 415.311 597.243 409.027 596.152 403.974C595.586 401.352 594.593 398.774 592.843 396.559C591.05 394.288 588.685 392.686 585.856 391.725C580.521 389.913 573.565 390.403 565.08 392.258C556.397 394.156 545.193 397.708 530.836 402.954C525.953 404.738 522.629 405.54 520.518 405.755C520.643 405.449 520.794 405.108 520.976 404.731C522.095 402.406 524.031 399.403 526.722 395.838C534.527 385.5 547.38 372.126 559.847 360.117C559.61 361.116 559.381 362.107 559.163 363.085C557.63 369.957 556.481 376.773 556.672 381.441C556.721 382.652 556.867 383.959 557.229 385.196C557.571 386.363 558.274 388.05 559.854 389.324C561.682 390.799 563.872 391.083 565.768 390.671C567.429 390.31 568.822 389.445 569.881 388.634C572.024 386.993 574.353 384.347 576.908 380.913C579.526 377.394 582.617 372.722 586.248 366.742ZM589.516 315.628C590.033 318.213 590.613 320.559 591.256 322.693C587.829 312.865 581.721 303.806 574.383 295.72C571.46 292.498 568.311 289.399 565.01 286.433C577.992 294.857 587.341 304.755 589.516 315.628ZM518.602 405.76C518.604 405.758 518.635 405.763 518.687 405.78C518.625 405.77 518.599 405.762 518.602 405.76ZM519.987 407.58C519.988 407.587 519.988 407.59 519.987 407.591C519.987 407.591 519.987 407.587 519.987 407.58Z" stroke="#BEFF8A" stroke-opacity="0.8" stroke-width="10.8078"/>
</svg>
